<?xml version="1.0" encoding="UTF-8" standalone="no"?>
<!-- Created with Inkscape (http://www.inkscape.org/) -->

<svg
   width="490.90125mm"
   height="158.75mm"
   viewBox="0 0 490.90125 158.75"
   version="1.1"
   id="svg5"
   xml:space="preserve"
   inkscape:version="1.2.1 (9c6d41e4, 2022-07-14)"
   sodipodi:docname="logo.svg"
   xmlns:inkscape="http://www.inkscape.org/namespaces/inkscape"
   xmlns:sodipodi="http://sodipodi.sourceforge.net/DTD/sodipodi-0.dtd"
   xmlns="http://www.w3.org/2000/svg"
   xmlns:svg="http://www.w3.org/2000/svg"><sodipodi:namedview
     id="namedview7"
     pagecolor="#ffffff"
     bordercolor="#000000"
     borderopacity="0.25"
     inkscape:showpageshadow="2"
     inkscape:pageopacity="0.0"
     inkscape:pagecheckerboard="0"
     inkscape:deskcolor="#d1d1d1"
     inkscape:document-units="mm"
     showgrid="false"
     inkscape:zoom="0.55579855"
     inkscape:cx="805.14783"
     inkscape:cy="407.52175"
     inkscape:window-width="1792"
     inkscape:window-height="1067"
     inkscape:window-x="0"
     inkscape:window-y="25"
     inkscape:window-maximized="1"
     inkscape:current-layer="layer2" /><defs
     id="defs2"><style
       id="style2952">
      .cls-1 {
        fill: #8c1539;
      }

      .cls-2 {
        fill: #fff;
      }
    </style><style
       id="style12093">
      .cls-1 {
        isolation: isolate;
      }

      .cls-2 {
        fill: #2e2d62;
      }
    </style></defs><g
     inkscape:label="Layer 1"
     inkscape:groupmode="layer"
     id="layer1"><g
       id="g2966"
       transform="matrix(0.26458333,0,0,0.26458333,-0.09110475,2.4258488)"><rect
         class="cls-1"
         width="600"
         height="600"
         id="rect2956"
         x="0.3443329"
         y="-9.1685629" /><path
         class="cls-2"
         d="m 337.43,331.26 h -11.77 a 4.74,4.74 0 0 0 -4.93,4.54 v 33.87 a 4.73,4.73 0 0 0 4.56,4.89 h 12.16 c 10.7,0 20.22,-7.77 20.22,-21.92 -0.09,-11.16 -7.35,-21.38 -20.24,-21.38 z m -1.64,34.17 h -5.25 v -25 h 5.68 c 7.17,0 10.83,4.93 10.83,12.25 0,7.5 -3.61,12.75 -11.26,12.75 z m 37.44,-32 a 5.66,5.66 0 1 1 -5.67,-5.65 v 0 a 5.63,5.63 0 0 1 5.65,5.63 z m -0.89,13.33 V 370 a 4.76,4.76 0 1 1 -9.5,0.45 3.38,3.38 0 0 1 0,-0.45 v -23.28 a 4.76,4.76 0 0 1 9.5,-0.45 3.38,3.38 0 0 1 0,0.45 z m 81,-0.18 c 0,3 -2,4.38 -5,4.38 h -2.62 V 370 a 4.75,4.75 0 1 1 -9.49,0 v -19 h -1.06 c -3.06,0 -5,-1.33 -5,-4.39 0,-3.06 1.95,-4.36 5,-4.36 h 1.06 V 336 a 4.75,4.75 0 1 1 9.49,0 v 6.2 h 2.62 c 3,0 5,1.3 5,4.35 z m 50.19,-13.93 V 370 a 4.75,4.75 0 1 1 -9.49,0 v -37.34 a 4.75,4.75 0 1 1 9.49,0 z m -77.67,0.74 a 5.66,5.66 0 1 1 -5.67,-5.65 v 0 a 5.65,5.65 0 0 1 5.63,5.67 v 0 z m -0.95,13.37 V 370 a 4.75,4.75 0 1 1 -9.49,0 v -23.28 a 4.75,4.75 0 0 1 9.49,0 z m -20.08,-4.89 a 4.85,4.85 0 0 0 -4.44,3 9.44,9.44 0 0 0 -8.14,-3.66 c -8.28,0 -14.69,7.64 -14.69,17.17 0,8.51 4.57,16.55 13.75,16.55 3.19,0 6.59,-0.76 8.64,-3.64 h 0.13 c 0,5.27 -2,8.36 -7.9,8.36 -5.54,0 -7.31,-2.8 -10.05,-2.8 a 4.37,4.37 0 0 0 -3.94,4.13 c 0,5.19 9.24,7.09 14.17,7.09 9.3,0 17.21,-4.57 17.21,-16.68 v -24.67 a 4.69,4.69 0 0 0 -4.53,-4.85 z m -11.26,24.63 c -4.19,0 -6.51,-3.52 -6.51,-8.14 0,-4.37 2.32,-8 6.51,-8 4.19,0 6.51,3.67 6.51,8 0,4.66 -2.32,8.18 -6.51,8.18 z m 89.88,-24.67 a 4.83,4.83 0 0 0 -4.44,3 9.46,9.46 0 0 0 -8.15,-3.67 c -8.27,0 -14.68,7.63 -14.68,17.15 0,9.52 6.39,17.2 14.68,17.2 a 9.51,9.51 0 0 0 8.15,-3.71 4.85,4.85 0 0 0 4.44,3.07 4.7,4.7 0 0 0 4.74,-4.67 v -23.41 a 4.71,4.71 0 0 0 -4.46,-4.92 h -0.28 z m -11.26,24.54 c -4.19,0 -6.51,-3.63 -6.51,-8 0,-4.37 2.32,-8 6.51,-8 4.19,0 6.51,3.66 6.51,8 0,4.34 -2.32,8.08 -6.51,8.08 z M 89,288 c 0,7.45 3.3,12.33 8.36,12.33 a 10.43,10.43 0 0 0 6.75,-2.5 c 3.59,-2.7 6.48,-2.39 9.12,1.07 2.64,3.46 1.9,6.77 -1.18,9.83 -3.08,3.06 -9,5.87 -15.9,5.87 C 82.89,314.62 74,303.78 74,288 c 0,-16 10,-26.5 23.2,-26.5 7.15,0 12,2.42 15.18,5.43 3,2.81 3.67,6 1.43,9.44 -2,3.12 -5.83,4.64 -8.75,2.13 -1.61,-1.41 -3.69,-3.19 -7.28,-3.19 C 92.55,275.28 89,280.23 89,288 Z m 70.2,-22 c -2.94,-8.51 -6.16,-10.31 -13.19,-10.31 -7.03,0 -10.13,1.71 -13.21,10.31 0,0 -12.16,34.87 -13.63,40.05 -1.61,5.74 2,8.59 7.3,8.59 5.06,0 7,-1.66 8.72,-6.86 l 1.57,-5.45 h 17.48 l 1.77,5.55 c 1.36,5.21 3.3,6.72 8.85,6.72 5.24,0 9.23,-3 7.72,-8.63 -1.32,-5 -13.35,-40 -13.35,-40 z m -18.63,22.6 5.07,-22.28 5.7,22.28 z m 64.9,-21.15 h -6.75 v 39.22 c 0,6.07 -3.76,8 -9.14,8 -5.38,0 -9.14,-1.9 -9.14,-8 V 267.4 h -6.93 c -5.4,0 -7.06,-3.36 -7.06,-8.15 0,-4.79 1.61,-8.14 7,-8.14 h 32 c 5.43,0 7,3.5 7,8.19 0,4.69 -1.61,8.1 -7,8.1 z m 51,-13 c -4,-11.1 -7.29,-13 -16.27,-13 -8.98,0 -12.32,2.12 -16.31,13 0,0 -15.17,42.93 -17,49.46 -2,7.23 2.3,10.72 8.91,10.72 6.61,0 8.59,-1.83 10.95,-8.51 l 2.26,-6.47 h 20.89 l 1.78,6.61 c 1.73,6.89 4.91,8.39 11.14,8.39 6.61,0 11.35,-3.71 9.44,-10.81 -1.69,-6.28 -15.76,-49.43 -15.76,-49.43 z m -23.87,28.17 7.13,-27.43 6.39,27.43 z m 103.21,-18.94 c 0,-17.62 -9.36,-28.61 -33.25,-28.61 h -14.33 c -7.65,0 -10.82,3.72 -10.82,10.47 v 59.16 c 0,7.36 4.51,9.94 10.87,9.94 6.9,0 10.84,-2.58 10.84,-9.94 V 292 h 7.52 c 18.29,0 29.16,-10.67 29.16,-28.33 z m -36.78,11.14 v -22.6 h 2.73 c 10.35,0 12.24,5.32 12.24,11.35 0,6.58 -2,11.25 -12.25,11.25 z m 120.79,27.8 v -75.47 c 0,-8.38 4.82,-11 12.28,-11 7.46,0 12.25,2.61 12.25,11 v 64.42 h 16 c 7.62,0 9.91,4.46 9.91,11.19 0,6.73 -2.36,11.24 -9.94,11.24 h -29.15 c -8.11,0 -11.3,-4.19 -11.3,-11.4 z m 106.4,-78.87 c 0,7.29 -2.42,12 -10.64,12 h -12.05 v 67.15 c 0,8.71 -5.23,11.76 -13,11.76 -7.77,0 -13,-2.94 -13,-11.76 V 235.69 H 465.4 c -8.25,0 -10.64,-4.58 -10.64,-12 0,-7.42 2.44,-12 10.64,-12 h 50.19 c 8.22,0 10.64,4.76 10.64,12 z m -114.51,7.62 v 46.93 c 0,22.61 -9.92,37.46 -35.11,37.46 -25.19,0 -35,-14.75 -35,-37.34 v -41.71 c 0,-7.85 4.54,-10.44 11.32,-10.44 6.78,0 11.38,2.67 11.38,10.39 v 41.39 c 0,11.62 4.18,17.78 12.32,17.78 8.14,0 12.38,-6.16 12.38,-17.83 v -46.67 c 0,-7.87 4.57,-10.4 11.39,-10.4 6.82,0 11.38,2.67 11.38,10.4 z"
         id="path2958"
         style="fill:#ffffff" /></g></g><g
     inkscape:groupmode="layer"
     id="layer2"
     inkscape:label="Layer 2"><g
       id="Digital_Security_by_Design"
       data-name="Digital Security by Design"
       class="cls-1"
       transform="matrix(2.0091797,0,0,2.0091796,218.87842,46.720607)"><g
         class="cls-1"
         id="g12127"><path
           class="cls-2"
           d="m 246.29,411.17 c 0,3.72 -2.35,6 -5.91,6 h -5.84 v -11.9 h 5.84 c 3.56,-0.02 5.91,2.18 5.91,5.9 z m -2.48,0 c 0,-2.27 -1.21,-3.7 -3.52,-3.7 H 237 V 415 h 3.31 c 2.34,0 3.5,-1.64 3.5,-3.87 z"
           transform="translate(-234.54,-404.83)"
           id="path12097" /><path
           class="cls-2"
           d="m 247.84,406.24 a 1.42,1.42 0 0 1 1.43,-1.41 1.39,1.39 0 0 1 1.37,1.41 1.42,1.42 0 0 1 -1.37,1.39 1.45,1.45 0 0 1 -1.43,-1.39 z m 0.24,2.41 h 2.34 v 8.5 h -2.34 z"
           transform="translate(-234.54,-404.83)"
           id="path12099" /><path
           class="cls-2"
           d="m 261.66,417.75 c 0,1.78 -1.62,3 -4.78,3 -3.16,0 -4.57,-1.32 -4.86,-2.8 l 1.29,-1.16 a 1.78,1.78 0 0 1 -1,-1.61 2,2 0 0 1 1.21,-1.74 2.43,2.43 0 0 1 -1.05,-2 c 0,-1.67 1.59,-2.93 4.33,-2.93 a 6.36,6.36 0 0 1 2.38,0.43 4.8,4.8 0 0 0 1.75,-1.24 L 262,409 a 5.14,5.14 0 0 1 -1.44,0.85 2.27,2.27 0 0 1 0.63,1.55 c 0,1.85 -1.89,2.87 -4.39,2.87 a 7.08,7.08 0 0 1 -2,-0.26 0.62,0.62 0 0 0 -0.41,0.58 c 0,0.5 0.61,0.63 1.12,0.63 h 2.84 c 2.14,0.01 3.31,0.98 3.31,2.53 z m -2.31,0.13 c 0,-0.61 -0.6,-0.85 -1.26,-0.85 h -2.72 l -1,0.94 c 0.24,0.56 1.11,1 2.6,1 1.49,0 2.38,-0.37 2.38,-1.09 z m -4.58,-6.49 c 0,0.7 0.73,1.17 2.06,1.17 1.33,0 2.07,-0.47 2.07,-1.17 0,-0.7 -0.71,-1.21 -2.07,-1.21 -1.36,0 -2.06,0.48 -2.06,1.21 z"
           transform="translate(-234.54,-404.83)"
           id="path12101" /><path
           class="cls-2"
           d="m 263,406.24 a 1.43,1.43 0 0 1 1.43,-1.41 1.39,1.39 0 0 1 1.38,1.41 1.42,1.42 0 0 1 -1.38,1.39 1.46,1.46 0 0 1 -1.43,-1.39 z m 0.24,2.41 h 2.35 v 8.5 h -2.35 z"
           transform="translate(-234.54,-404.83)"
           id="path12103" /><path
           class="cls-2"
           d="m 268.85,414.71 v -4.2 h -2.11 v -1.86 h 0.83 c 1,0 1.45,-0.39 1.45,-1.32 v -1.07 h 2.18 v 2.39 h 2.58 v 1.86 h -2.58 v 3.79 c 0,0.51 0.1,1.17 1.27,1.17 a 4.94,4.94 0 0 0 1,-0.12 v 1.79 a 7.85,7.85 0 0 1 -1.68,0.18 c -2.21,0 -2.94,-1.19 -2.94,-2.61 z"
           transform="translate(-234.54,-404.83)"
           id="path12105" /><path
           class="cls-2"
           d="m 284.76,415.42 v 1.73 h -1 a 1.88,1.88 0 0 1 -1.95,-1.14 4.36,4.36 0 0 1 -3.57,1.31 c -2.18,0 -3.65,-0.81 -3.65,-2.53 0,-1.72 1.29,-2.45 3.06,-2.58 l 3.82,-0.29 v -0.22 c 0,-0.94 -0.8,-1.4 -2,-1.4 -1.2,0 -1.9,0.44 -2.07,1.24 H 275 c 0.22,-1.83 1.84,-3.06 4.42,-3.06 2.58,0 4.39,1 4.39,3.35 v 2.84 c 0,0.51 0.22,0.75 0.71,0.75 z m -3.28,-1.92 -3.21,0.24 c -0.78,0.06 -1.31,0.35 -1.31,0.93 0,0.58 0.61,0.88 1.55,0.88 1.37,0 3,-0.44 3,-1.78 z"
           transform="translate(-234.54,-404.83)"
           id="path12107" /><path
           class="cls-2"
           d="m 285.83,405.08 h 2.35 v 12.07 h -2.35 z"
           transform="translate(-234.54,-404.83)"
           id="path12109" /><path
           class="cls-2"
           d="m 300,417.32 c -3.54,0 -5.29,-1.56 -5.43,-3.87 h 2.5 c 0.21,1.17 1,1.82 2.93,1.82 1.41,0 2.46,-0.36 2.46,-1.35 0,-0.99 -1.24,-1.42 -2.46,-1.71 l -1.67,-0.33 c -1.87,-0.42 -3.38,-1.37 -3.38,-3.3 0,-2.22 2,-3.5 4.89,-3.5 3.08,0 4.8,1.48 4.93,3.54 h -2.51 c -0.17,-0.88 -0.89,-1.48 -2.42,-1.48 -1.53,0 -2.34,0.49 -2.34,1.33 0,0.84 0.95,1.2 2.17,1.49 l 1.64,0.29 c 1.92,0.41 3.68,1.38 3.68,3.64 0.01,2.43 -2.46,3.43 -4.99,3.43 z"
           transform="translate(-234.54,-404.83)"
           id="path12111" /><path
           class="cls-2"
           d="m 316.4,414.4 c -0.36,1.77 -2.09,2.92 -4.69,2.92 -3.11,0 -5.19,-1.71 -5.19,-4.35 0,-2.64 2.16,-4.49 5,-4.49 2.49,0 4.8,1.3 4.81,4.35 a 4.36,4.36 0 0 1 -0.05,0.72 h -7.44 c 0.15,1.14 1.12,1.92 2.84,1.92 1.25,0 2.09,-0.37 2.38,-1.07 z m -7.48,-2.47 h 5.13 c -0.13,-0.93 -1,-1.59 -2.5,-1.59 -1.5,0 -2.41,0.66 -2.63,1.59 z"
           transform="translate(-234.54,-404.83)"
           id="path12113" /><path
           class="cls-2"
           d="m 317.79,413 c 0,-2.72 2.21,-4.47 5.19,-4.47 2.43,0 4.57,1.09 4.88,3.35 h -2.37 a 2.47,2.47 0 0 0 -2.51,-1.31 c -1.7,0 -2.82,1 -2.82,2.43 0,1.43 1,2.33 2.85,2.33 1.26,0 2.19,-0.35 2.52,-1.12 h 2.36 c -0.32,2 -2.19,3.16 -4.88,3.16 -3.19,-0.05 -5.22,-1.83 -5.22,-4.37 z"
           transform="translate(-234.54,-404.83)"
           id="path12115" /><path
           class="cls-2"
           d="m 338.94,417.15 h -2.16 l -0.2,-1.07 h -0.14 a 3.8,3.8 0 0 1 -3.06,1.24 c -2.51,0 -4,-1.41 -4,-3.82 v -4.85 h 2.35 V 413 a 2.14,2.14 0 0 0 2.38,2.33 2.25,2.25 0 0 0 2.5,-2.41 v -4.22 h 2.36 z"
           transform="translate(-234.54,-404.83)"
           id="path12117" /><path
           class="cls-2"
           d="m 340.78,408.65 h 2.12 l 0.22,1.23 h 0.15 a 3.11,3.11 0 0 1 2.91,-1.4 H 347 v 2.37 a 6.08,6.08 0 0 0 -1.11,-0.09 2.51,2.51 0 0 0 -2.72,2.74 v 3.65 h -2.34 z"
           transform="translate(-234.54,-404.83)"
           id="path12119" /><path
           class="cls-2"
           d="m 347.88,406.24 a 1.42,1.42 0 0 1 1.43,-1.41 1.39,1.39 0 0 1 1.38,1.41 1.42,1.42 0 0 1 -1.38,1.39 1.45,1.45 0 0 1 -1.43,-1.39 z m 0.24,2.41 h 2.35 v 8.5 h -2.35 z"
           transform="translate(-234.54,-404.83)"
           id="path12121" /><path
           class="cls-2"
           d="m 353.75,414.71 v -4.2 h -2.11 v -1.86 h 0.83 c 1,0 1.45,-0.39 1.45,-1.32 v -1.07 h 2.17 v 2.39 h 2.59 v 1.86 h -2.59 v 3.79 c 0,0.51 0.1,1.17 1.28,1.17 a 4.94,4.94 0 0 0 1,-0.12 v 1.79 a 8,8 0 0 1 -1.69,0.18 c -2.2,0 -2.93,-1.19 -2.93,-2.61 z"
           transform="translate(-234.54,-404.83)"
           id="path12123" /><path
           class="cls-2"
           d="m 360.61,420.54 v -1.74 a 5.23,5.23 0 0 0 1,0.1 2.19,2.19 0 0 0 2.07,-1.15 l 0.31,-0.6 h -0.77 l -4,-8.5 h 2.55 l 2.82,6.23 h 0.16 l 2.65,-6.23 h 2.53 l -4.08,9.45 a 3.75,3.75 0 0 1 -3.74,2.62 6.56,6.56 0 0 1 -1.5,-0.18 z"
           transform="translate(-234.54,-404.83)"
           id="path12125" /></g><g
         class="cls-1"
         id="g12145"><path
           class="cls-2"
           d="m 268.32,431.89 c 0,2.75 -2,4.43 -4.76,4.43 a 4,4 0 0 1 -3.09,-1.15 h -0.15 l -0.22,1 h -1.94 v -12.09 h 2.34 v 4.41 a 4.63,4.63 0 0 1 3.06,-1 c 2.69,-0.01 4.76,1.59 4.76,4.4 z m -2.36,0 c 0,-1.43 -1,-2.37 -2.74,-2.37 -1.74,0 -2.72,0.94 -2.72,2.37 0,1.43 1,2.39 2.72,2.39 1.72,0 2.78,-0.93 2.78,-2.39 z"
           transform="translate(-234.54,-404.83)"
           id="path12129" /><path
           class="cls-2"
           d="m 270.67,439.54 v -1.74 a 5.4,5.4 0 0 0 1,0.1 2.18,2.18 0 0 0 2.07,-1.15 l 0.31,-0.6 h -0.76 l -4,-8.5 h 2.55 l 2.82,6.23 h 0.15 l 2.65,-6.23 H 280 l -4.08,9.45 a 3.74,3.74 0 0 1 -3.73,2.62 6.42,6.42 0 0 1 -1.52,-0.18 z"
           transform="translate(-234.54,-404.83)"
           id="path12131" /><path
           class="cls-2"
           d="m 297.73,430.17 c 0,3.72 -2.34,6 -5.91,6 H 286 v -11.9 h 5.83 c 3.56,-0.02 5.9,2.18 5.9,5.9 z m -2.48,0 c 0,-2.27 -1.21,-3.7 -3.52,-3.7 h -3.31 V 434 h 3.31 c 2.36,0 3.52,-1.64 3.52,-3.87 z"
           transform="translate(-234.54,-404.83)"
           id="path12133" /><path
           class="cls-2"
           d="m 309.16,433.4 c -0.36,1.77 -2.09,2.92 -4.7,2.92 -3.11,0 -5.18,-1.71 -5.18,-4.35 0,-2.64 2.16,-4.49 5,-4.49 2.48,0 4.8,1.3 4.81,4.35 a 4.36,4.36 0 0 1 -0.05,0.72 h -7.44 c 0.15,1.14 1.12,1.92 2.83,1.92 1.26,0 2.1,-0.37 2.38,-1.07 z m -7.48,-2.47 h 5.13 c -0.14,-0.93 -1,-1.59 -2.5,-1.59 -1.5,0 -2.41,0.66 -2.63,1.59 z"
           transform="translate(-234.54,-404.83)"
           id="path12135" /><path
           class="cls-2"
           d="m 310.55,433.38 h 2.31 c 0.21,0.89 1,1.23 2.25,1.23 1,0 1.71,-0.21 1.71,-0.84 0,-0.63 -0.47,-0.76 -1.63,-1 l -1.6,-0.28 c -1.49,-0.25 -2.7,-0.86 -2.7,-2.38 0,-1.73 1.68,-2.65 3.84,-2.65 2.72,0 4,1.18 4.2,2.67 h -2.35 c -0.15,-0.59 -0.67,-0.95 -1.85,-0.95 -1,0 -1.53,0.26 -1.53,0.8 0,0.54 0.61,0.7 1.55,0.87 l 1.63,0.27 c 1.89,0.34 2.75,1.24 2.75,2.6 0,1.8 -1.76,2.58 -4,2.58 -2.91,0.02 -4.43,-1.07 -4.58,-2.92 z"
           transform="translate(-234.54,-404.83)"
           id="path12137" /><path
           class="cls-2"
           d="m 320.5,425.24 a 1.42,1.42 0 0 1 1.42,-1.41 1.39,1.39 0 0 1 1.38,1.41 1.42,1.42 0 0 1 -1.38,1.39 1.45,1.45 0 0 1 -1.42,-1.39 z m 0.23,2.41 h 2.35 v 8.5 h -2.35 z"
           transform="translate(-234.54,-404.83)"
           id="path12139" /><path
           class="cls-2"
           d="m 334.32,436.75 c 0,1.78 -1.62,3 -4.78,3 -3.16,0 -4.57,-1.32 -4.86,-2.8 l 1.29,-1.16 a 1.76,1.76 0 0 1 -1,-1.61 2,2 0 0 1 1.21,-1.74 2.41,2.41 0 0 1 -1.06,-2 c 0,-1.67 1.6,-2.93 4.34,-2.93 a 6.4,6.4 0 0 1 2.38,0.43 4.8,4.8 0 0 0 1.75,-1.24 l 1.12,1.34 a 5.14,5.14 0 0 1 -1.44,0.85 2.31,2.31 0 0 1 0.62,1.55 c 0,1.85 -1.88,2.87 -4.38,2.87 a 7.21,7.21 0 0 1 -2,-0.26 0.62,0.62 0 0 0 -0.41,0.58 c 0,0.5 0.62,0.63 1.13,0.63 H 331 c 2.14,-0.03 3.32,0.94 3.32,2.49 z m -2.32,0.13 c 0,-0.61 -0.59,-0.85 -1.25,-0.85 H 328 l -1,0.94 c 0.24,0.56 1.1,1 2.6,1 1.5,0 2.4,-0.37 2.4,-1.09 z m -4.57,-6.49 c 0,0.7 0.73,1.17 2.06,1.17 1.33,0 2.07,-0.47 2.07,-1.17 0,-0.7 -0.71,-1.21 -2.07,-1.21 -1.36,0 -2.06,0.48 -2.06,1.21 z"
           transform="translate(-234.54,-404.83)"
           id="path12141" /><path
           class="cls-2"
           d="M 335.88,427.65 H 338 l 0.21,1.07 h 0.15 a 3.79,3.79 0 0 1 3,-1.24 c 2.52,0 4.05,1.41 4.05,3.83 v 4.84 h -2.31 v -4.3 a 2.14,2.14 0 0 0 -2.38,-2.33 2.25,2.25 0 0 0 -2.49,2.42 v 4.21 h -2.35 z"
           transform="translate(-234.54,-404.83)"
           id="path12143" /></g></g></g></svg>
