<svg version="1.1" viewBox="0.0 0.0 960.0 540.0" fill="none" stroke="none" stroke-linecap="square" stroke-miterlimit="10" xmlns:xlink="http://www.w3.org/1999/xlink" xmlns="http://www.w3.org/2000/svg"><clipPath id="g1473a44ef58_0_469.0"><path d="m0 0l960.0 0l0 540.0l-960.0 0l0 -540.0z" clip-rule="nonzero"/></clipPath><g clip-path="url(#g1473a44ef58_0_469.0)"><path fill="#ffffff" d="m0 0l960.0 0l0 540.0l-960.0 0z" fill-rule="evenodd"/><path fill="#000000" fill-opacity="0.0" d="m23.384514 240.63255l913.22833 0" fill-rule="evenodd"/><path stroke="#595959" stroke-width="1.0" stroke-linejoin="round" stroke-linecap="butt" d="m26.8116 240.63255l906.3742 0" fill-rule="evenodd"/><path fill="#595959" stroke="#595959" stroke-width="1.0" stroke-linecap="butt" d="m26.811602 240.63255l1.1245823 -1.124588l-3.0897675 1.124588l3.0897675 1.1245728z" fill-rule="evenodd"/><path fill="#595959" stroke="#595959" stroke-width="1.0" stroke-linecap="butt" d="m933.1858 240.63255l-1.1245728 1.1245728l3.0897217 -1.1245728l-3.0897217 -1.124588z" fill-rule="evenodd"/><path fill="#000000" fill-opacity="0.0" d="m23.379265 275.5958l37.795277 0l0 37.795288l-37.795277 0z" fill-rule="evenodd"/><path stroke="#000000" stroke-width="1.0" stroke-linejoin="round" stroke-linecap="butt" d="m23.379265 275.5958l37.795277 0l0 37.795288l-37.795277 0z" fill-rule="evenodd"/><path fill="#980000" d="m47.273773 297.4322q0 1.203125 -0.625 2.125q-0.625 0.921875 -1.8125 1.453125q-1.171875 0.515625 -2.828125 0.515625q-1.828125 0 -3.0625 -0.53125q-1.234375 -0.53125 -2.046875 -1.328125l1.546875 -1.71875q0.71875 0.625 1.578125 0.96875q0.875 0.34375 1.921875 0.34375q0.640625 0 1.125 -0.1875q0.484375 -0.1875 0.75 -0.546875q0.28125 -0.359375 0.28125 -0.859375q0 -0.46875 -0.21875 -0.796875q-0.21875 -0.328125 -0.734375 -0.59375q-0.5 -0.265625 -1.40625 -0.53125q-1.515625 -0.46875 -2.4375 -1.015625q-0.90625 -0.5625 -1.328125 -1.296875q-0.40625 -0.75 -0.40625 -1.71875q0 -1.1875 0.65625 -2.03125q0.65625 -0.84375 1.765625 -1.28125q1.109375 -0.4375 2.4375 -0.4375q1.5 0 2.640625 0.4375q1.15625 0.421875 2.0 1.234375l-1.4375 1.65625q-0.65625 -0.546875 -1.421875 -0.8125q-0.75 -0.265625 -1.53125 -0.265625q-0.578125 0 -1.015625 0.140625q-0.4375 0.140625 -0.6875 0.421875q-0.234375 0.28125 -0.234375 0.703125q0 0.40625 0.234375 0.6875q0.234375 0.28125 0.8125 0.53125q0.578125 0.234375 1.59375 0.5625q1.21875 0.375 2.09375 0.90625q0.875 0.515625 1.328125 1.296875q0.46875 0.78125 0.46875 1.96875z" fill-rule="nonzero"/><path fill="#000000" fill-opacity="0.0" d="m69.45538 275.5958l37.795273 0l0 37.795288l-37.795273 0z" fill-rule="evenodd"/><path stroke="#000000" stroke-width="1.0" stroke-linejoin="round" stroke-linecap="butt" d="m69.45538 275.5958l37.795273 0l0 37.795288l-37.795273 0z" fill-rule="evenodd"/><path fill="#980000" d="m87.55302 290.46344l0 3.109375l4.46875 0l0 2.140625l-4.46875 0l0 3.3125l5.40625 0l0 2.1875l-8.46875 0l0 -12.921875l8.453125 0l-0.3125 2.171875l-5.078125 0z" fill-rule="nonzero"/><path fill="#000000" fill-opacity="0.0" d="m115.531494 275.5958l37.795273 0l0 37.795288l-37.795273 0z" fill-rule="evenodd"/><path stroke="#000000" stroke-width="1.0" stroke-linejoin="round" stroke-linecap="butt" d="m115.531494 275.5958l37.795273 0l0 37.795288l-37.795273 0z" fill-rule="evenodd"/><path fill="#980000" d="m135.50414 287.96344q1.390625 0 2.359375 0.375q0.984375 0.359375 1.796875 1.03125l-1.5 1.8125q-0.53125 -0.4375 -1.171875 -0.6875q-0.640625 -0.265625 -1.40625 -0.265625q-0.8125 0 -1.484375 0.46875q-0.671875 0.453125 -1.078125 1.453125q-0.390625 0.984375 -0.390625 2.5625q0 1.5625 0.390625 2.546875q0.390625 0.984375 1.0625 1.453125q0.6875 0.453125 1.5625 0.453125q0.96875 0 1.609375 -0.359375q0.640625 -0.359375 1.1875 -0.796875l1.390625 1.78125q-0.734375 0.71875 -1.796875 1.234375q-1.0625 0.5 -2.5625 0.5q-1.75 0 -3.109375 -0.765625q-1.359375 -0.78125 -2.125 -2.296875q-0.765625 -1.515625 -0.765625 -3.75q0 -2.15625 0.796875 -3.65625q0.796875 -1.515625 2.15625 -2.296875q1.375 -0.796875 3.078125 -0.796875z" fill-rule="nonzero"/><path fill="#000000" fill-opacity="0.0" d="m161.6076 275.5958l37.795288 0l0 37.795288l-37.795288 0z" fill-rule="evenodd"/><path stroke="#000000" stroke-width="1.0" stroke-linejoin="round" stroke-linecap="butt" d="m161.6076 275.5958l37.795288 0l0 37.795288l-37.795288 0z" fill-rule="evenodd"/><path fill="#980000" d="m185.37712 292.21344q0 0.921875 -0.34375 1.609375q-0.34375 0.6875 -0.9375 1.171875q-0.578125 0.46875 -1.3125 0.765625l3.390625 5.453125l-3.453125 0l-2.796875 -4.9375l-0.875 0l0 4.9375l-3.0625 0l0 -12.921875l4.078125 0q2.625 0 3.96875 0.96875q1.34375 0.953125 1.34375 2.953125zm-3.140625 0q0 -0.9375 -0.546875 -1.359375q-0.546875 -0.421875 -1.625 -0.421875l-1.015625 0l0 3.734375l1.140625 0q1.0 0 1.515625 -0.453125q0.53125 -0.46875 0.53125 -1.5z" fill-rule="nonzero"/><path fill="#000000" fill-opacity="0.0" d="m207.68373 275.5958l37.795273 0l0 37.795288l-37.795273 0z" fill-rule="evenodd"/><path stroke="#000000" stroke-width="1.0" stroke-linejoin="round" stroke-linecap="butt" d="m207.68373 275.5958l37.795273 0l0 37.795288l-37.795273 0z" fill-rule="evenodd"/><path fill="#980000" d="m225.78136 290.46344l0 3.109375l4.46875 0l0 2.140625l-4.46875 0l0 3.3125l5.40625 0l0 2.1875l-8.46875 0l0 -12.921875l8.453125 0l-0.3125 2.171875l-5.078125 0z" fill-rule="nonzero"/><path fill="#000000" fill-opacity="0.0" d="m253.75984 275.5958l37.795273 0l0 37.795288l-37.795273 0z" fill-rule="evenodd"/><path stroke="#000000" stroke-width="1.0" stroke-linejoin="round" stroke-linecap="butt" d="m253.75984 275.5958l37.795273 0l0 37.795288l-37.795273 0z" fill-rule="evenodd"/><path fill="#980000" d="m274.16998 290.6197l0 10.59375l-3.0625 0l0 -10.59375l-3.625 0l0 -2.328125l10.46875 0l-0.328125 2.328125l-3.453125 0z" fill-rule="nonzero"/><path fill="#000000" fill-opacity="0.0" d="m299.83597 275.5958l37.795258 0l0 37.795288l-37.795258 0z" fill-rule="evenodd"/><path stroke="#000000" stroke-width="1.0" stroke-linejoin="round" stroke-linecap="butt" d="m299.83597 275.5958l37.795258 0l0 37.795288l-37.795258 0z" fill-rule="evenodd"/><path fill="#980000" d="m314.07422 304.6822l0 -2.3125l9.328125 0l0 2.3125l-9.328125 0z" fill-rule="nonzero"/><path fill="#000000" fill-opacity="0.0" d="m345.91208 275.5958l37.795258 0l0 37.795288l-37.795258 0z" fill-rule="evenodd"/><path stroke="#000000" stroke-width="1.0" stroke-linejoin="round" stroke-linecap="butt" d="m345.91208 275.5958l37.795258 0l0 37.795288l-37.795258 0z" fill-rule="evenodd"/><path fill="#980000" d="m360.15033 304.6822l0 -2.3125l9.328125 0l0 2.3125l-9.328125 0z" fill-rule="nonzero"/><path fill="#000000" fill-opacity="0.0" d="m391.9882 275.5958l37.795288 0l0 37.795288l-37.795288 0z" fill-rule="evenodd"/><path stroke="#000000" stroke-width="1.0" stroke-linejoin="round" stroke-linecap="butt" d="m391.9882 275.5958l37.795288 0l0 37.795288l-37.795288 0z" fill-rule="evenodd"/><path fill="#38761d" d="m416.0702 294.7447q0 2.046875 -0.59375 3.578125q-0.59375 1.515625 -1.75 2.359375q-1.140625 0.84375 -2.84375 0.84375q-1.6875 0 -2.84375 -0.8125q-1.15625 -0.828125 -1.75 -2.34375q-0.578125 -1.53125 -0.578125 -3.625q0 -2.0625 0.578125 -3.578125q0.59375 -1.515625 1.75 -2.359375q1.15625 -0.84375 2.84375 -0.84375q1.703125 0 2.84375 0.828125q1.15625 0.8125 1.75 2.328125q0.59375 1.515625 0.59375 3.625zm-3.140625 0q0 -2.390625 -0.484375 -3.46875q-0.46875 -1.09375 -1.5625 -1.09375q-1.09375 0 -1.578125 1.09375q-0.46875 1.078125 -0.46875 3.46875q0 2.390625 0.484375 3.46875q0.5 1.078125 1.5625 1.078125q1.125 0 1.578125 -1.09375q0.46875 -1.09375 0.46875 -3.453125z" fill-rule="nonzero"/><path fill="#000000" fill-opacity="0.0" d="m438.0643 275.5958l37.795288 0l0 37.795288l-37.795288 0z" fill-rule="evenodd"/><path stroke="#000000" stroke-width="1.0" stroke-linejoin="round" stroke-linecap="butt" d="m438.0643 275.5958l37.795288 0l0 37.795288l-37.795288 0z" fill-rule="evenodd"/><path fill="#38761d" d="m458.47443 290.6197l0 10.59375l-3.0625 0l0 -10.59375l-3.625 0l0 -2.328125l10.46875 0l-0.328125 2.328125l-3.453125 0z" fill-rule="nonzero"/><path fill="#000000" fill-opacity="0.0" d="m484.1404 275.5958l37.795258 0l0 37.795288l-37.795258 0z" fill-rule="evenodd"/><path stroke="#000000" stroke-width="1.0" stroke-linejoin="round" stroke-linecap="butt" d="m484.1404 275.5958l37.795258 0l0 37.795288l-37.795258 0z" fill-rule="evenodd"/><path fill="#38761d" d="m504.59744 301.21344l0 -5.453125l-3.125 0l0 5.453125l-3.0625 0l0 -12.921875l3.0625 0l0 4.953125l3.125 0l0 -4.953125l3.0625 0l0 12.921875l-3.0625 0z" fill-rule="nonzero"/><path fill="#000000" fill-opacity="0.0" d="m530.21655 275.5958l37.795288 0l0 37.795288l-37.795288 0z" fill-rule="evenodd"/><path stroke="#000000" stroke-width="1.0" stroke-linejoin="round" stroke-linecap="butt" d="m530.21655 275.5958l37.795288 0l0 37.795288l-37.795288 0z" fill-rule="evenodd"/><path fill="#38761d" d="m548.31415 290.46344l0 3.109375l4.46875 0l0 2.140625l-4.46875 0l0 3.3125l5.40625 0l0 2.1875l-8.46875 0l0 -12.921875l8.453125 0l-0.3125 2.171875l-5.078125 0z" fill-rule="nonzero"/><path fill="#000000" fill-opacity="0.0" d="m576.29266 275.5958l37.795288 0l0 37.795288l-37.795288 0z" fill-rule="evenodd"/><path stroke="#000000" stroke-width="1.0" stroke-linejoin="round" stroke-linecap="butt" d="m576.29266 275.5958l37.795288 0l0 37.795288l-37.795288 0z" fill-rule="evenodd"/><path fill="#38761d" d="m600.06213 292.21344q0 0.921875 -0.34375 1.609375q-0.34375 0.6875 -0.9375 1.171875q-0.578125 0.46875 -1.3125 0.765625l3.390625 5.453125l-3.453125 0l-2.796875 -4.9375l-0.875 0l0 4.9375l-3.0625 0l0 -12.921875l4.078125 0q2.625 0 3.96875 0.96875q1.34375 0.953125 1.34375 2.953125zm-3.140625 0q0 -0.9375 -0.546875 -1.359375q-0.546875 -0.421875 -1.625 -0.421875l-1.015625 0l0 3.734375l1.140625 0q1.0 0 1.515625 -0.453125q0.53125 -0.46875 0.53125 -1.5z" fill-rule="nonzero"/><path fill="#000000" fill-opacity="0.0" d="m622.3688 275.5958l37.795288 0l0 37.795288l-37.795288 0z" fill-rule="evenodd"/><path stroke="#000000" stroke-width="1.0" stroke-linejoin="round" stroke-linecap="butt" d="m622.3688 275.5958l37.795288 0l0 37.795288l-37.795288 0z" fill-rule="evenodd"/><path fill="#38761d" d="m636.60706 304.6822l0 -2.3125l9.328064 0l0 2.3125l-9.328064 0z" fill-rule="nonzero"/><path fill="#000000" fill-opacity="0.0" d="m668.4449 275.5958l37.795288 0l0 37.795288l-37.795288 0z" fill-rule="evenodd"/><path stroke="#000000" stroke-width="1.0" stroke-linejoin="round" stroke-linecap="butt" d="m668.4449 275.5958l37.795288 0l0 37.795288l-37.795288 0z" fill-rule="evenodd"/><path fill="#38761d" d="m689.29254 294.6822q0 -1.296875 -0.21875 -2.125q-0.21875 -0.828125 -0.609375 -1.265625q-0.390625 -0.453125 -0.921875 -0.609375q-0.515625 -0.171875 -1.109375 -0.171875l-0.65625 0l0 8.5l0.65625 0q0.625 0 1.15625 -0.203125q0.53125 -0.203125 0.90625 -0.6875q0.390625 -0.484375 0.59375 -1.3125q0.203125 -0.84375 0.203125 -2.125zm3.171875 0q0 1.578125 -0.34375 2.703125q-0.328125 1.125 -0.9375 1.875q-0.59375 0.734375 -1.390625 1.171875q-0.796875 0.421875 -1.71875 0.609375q-0.90625 0.171875 -1.875 0.171875l-3.484375 0l0 -12.921875l3.265625 0q1.234375 0 2.390625 0.25q1.171875 0.25 2.09375 0.9375q0.921875 0.6875 1.453125 1.953125q0.546875 1.25 0.546875 3.25z" fill-rule="nonzero"/><path fill="#000000" fill-opacity="0.0" d="m714.521 275.5958l37.795288 0l0 37.795288l-37.795288 0z" fill-rule="evenodd"/><path stroke="#000000" stroke-width="1.0" stroke-linejoin="round" stroke-linecap="butt" d="m714.521 275.5958l37.795288 0l0 37.795288l-37.795288 0z" fill-rule="evenodd"/><path fill="#38761d" d="m735.2905 298.41656l-3.796875 0l-0.671875 2.796875l-3.203125 0l3.953125 -12.921875l3.71875 0l3.953125 12.921875l-3.28125 0l-0.671875 -2.796875zm-3.3125 -2.21875l2.796875 0l-1.390625 -5.71875l-1.40625 5.71875z" fill-rule="nonzero"/><path fill="#000000" fill-opacity="0.0" d="m760.5971 275.5958l37.795288 0l0 37.795288l-37.795288 0z" fill-rule="evenodd"/><path stroke="#000000" stroke-width="1.0" stroke-linejoin="round" stroke-linecap="butt" d="m760.5971 275.5958l37.795288 0l0 37.795288l-37.795288 0z" fill-rule="evenodd"/><path fill="#38761d" d="m781.00726 290.6197l0 10.59375l-3.0625 0l0 -10.59375l-3.625 0l0 -2.328125l10.46875 0l-0.328125 2.328125l-3.453125 0z" fill-rule="nonzero"/><path fill="#000000" fill-opacity="0.0" d="m806.6732 275.5958l37.795288 0l0 37.795288l-37.795288 0z" fill-rule="evenodd"/><path stroke="#000000" stroke-width="1.0" stroke-linejoin="round" stroke-linecap="butt" d="m806.6732 275.5958l37.795288 0l0 37.795288l-37.795288 0z" fill-rule="evenodd"/><path fill="#38761d" d="m827.44275 298.41656l-3.796875 0l-0.671875 2.796875l-3.203125 0l3.953125 -12.921875l3.71875 0l3.953125 12.921875l-3.28125 0l-0.671875 -2.796875zm-3.3125 -2.21875l2.796875 0l-1.390625 -5.71875l-1.40625 5.71875z" fill-rule="nonzero"/><path fill="#000000" fill-opacity="0.0" d="m852.7493 275.5958l37.795288 0l0 37.795288l-37.795288 0z" fill-rule="evenodd"/><path stroke="#000000" stroke-width="1.0" stroke-linejoin="round" stroke-linecap="butt" d="m852.7493 275.5958l37.795288 0l0 37.795288l-37.795288 0z" fill-rule="evenodd"/><path fill="#38761d" d="m866.9876 304.6822l0 -2.3125l9.328125 0l0 2.3125l-9.328125 0z" fill-rule="nonzero"/><path fill="#000000" fill-opacity="0.0" d="m898.82544 275.5958l37.795288 0l0 37.795288l-37.795288 0z" fill-rule="evenodd"/><path stroke="#000000" stroke-width="1.0" stroke-linejoin="round" stroke-linecap="butt" d="m898.82544 275.5958l37.795288 0l0 37.795288l-37.795288 0z" fill-rule="evenodd"/><path fill="#38761d" d="m913.0637 304.6822l0 -2.3125l9.328125 0l0 2.3125l-9.328125 0z" fill-rule="nonzero"/><path fill="#000000" fill-opacity="0.0" d="m386.97638 195.12073l186.04724 0l0 42.015762l-186.04724 0z" fill-rule="evenodd"/><path fill="#000000" d="m413.7339 217.35323l1.765625 0.453125q-0.5625 2.171875 -2.0 3.328125q-1.4375 1.140625 -3.53125 1.140625q-2.15625 0 -3.515625 -0.875q-1.34375 -0.890625 -2.0625 -2.546875q-0.703125 -1.671875 -0.703125 -3.59375q0 -2.078125 0.796875 -3.625q0.796875 -1.5625 2.265625 -2.359375q1.484375 -0.8125 3.25 -0.8125q2.0 0 3.359375 1.015625q1.375 1.015625 1.90625 2.875l-1.734375 0.40625q-0.46875 -1.453125 -1.359375 -2.109375q-0.875 -0.671875 -2.203125 -0.671875q-1.546875 0 -2.578125 0.734375q-1.03125 0.734375 -1.453125 1.984375q-0.421875 1.234375 -0.421875 2.5625q0 1.703125 0.5 2.96875q0.5 1.265625 1.546875 1.90625q1.046875 0.625 2.265625 0.625q1.484375 0 2.515625 -0.859375q1.03125 -0.859375 1.390625 -2.546875zm3.129181 -0.15625q0 -2.6875 1.484375 -3.96875q1.25 -1.078125 3.046875 -1.078125q2.0 0 3.265625 1.3125q1.265625 1.296875 1.265625 3.609375q0 1.859375 -0.5625 2.9375q-0.5625 1.0625 -1.640625 1.65625q-1.0625 0.59375 -2.328125 0.59375q-2.03125 0 -3.28125 -1.296875q-1.25 -1.3125 -1.25 -3.765625zm1.6875 0q0 1.859375 0.796875 2.796875q0.8125 0.921875 2.046875 0.921875q1.21875 0 2.03125 -0.921875q0.8125 -0.9375 0.8125 -2.84375q0 -1.796875 -0.8125 -2.71875q-0.8125 -0.921875 -2.03125 -0.921875q-1.234375 0 -2.046875 0.921875q-0.796875 0.90625 -0.796875 2.765625zm9.297607 4.84375l0 -9.671875l1.46875 0l0 1.359375q0.453125 -0.71875 1.203125 -1.140625q0.765625 -0.4375 1.71875 -0.4375q1.078125 0 1.765625 0.453125q0.6875 0.4375 0.96875 1.234375q1.15625 -1.6875 2.984375 -1.6875q1.453125 0 2.21875 0.796875q0.78125 0.796875 0.78125 2.453125l0 6.640625l-1.640625 0l0 -6.09375q0 -0.984375 -0.15625 -1.40625q-0.15625 -0.4375 -0.578125 -0.703125q-0.421875 -0.265625 -0.984375 -0.265625q-1.015625 0 -1.6875 0.6875q-0.671875 0.671875 -0.671875 2.15625l0 5.625l-1.640625 0l0 -6.28125q0 -1.09375 -0.40625 -1.640625q-0.40625 -0.546875 -1.3125 -0.546875q-0.6875 0 -1.28125 0.359375q-0.59375 0.359375 -0.859375 1.0625q-0.25 0.703125 -0.25 2.03125l0 5.015625l-1.640625 0zm15.540802 3.703125l0 -13.375l1.484375 0l0 1.25q0.53125 -0.734375 1.1875 -1.09375q0.671875 -0.375 1.625 -0.375q1.234375 0 2.171875 0.640625q0.953125 0.625 1.4375 1.796875q0.484375 1.15625 0.484375 2.546875q0 1.484375 -0.53125 2.671875q-0.53125 1.1875 -1.546875 1.828125q-1.015625 0.625 -2.140625 0.625q-0.8125 0 -1.46875 -0.34375q-0.65625 -0.34375 -1.0625 -0.875l0 4.703125l-1.640625 0zm1.484375 -8.484375q0 1.859375 0.75 2.765625q0.765625 0.890625 1.828125 0.890625q1.09375 0 1.875 -0.921875q0.78125 -0.9375 0.78125 -2.875q0 -1.84375 -0.765625 -2.765625q-0.75 -0.921875 -1.8125 -0.921875q-1.046875 0 -1.859375 0.984375q-0.796875 0.96875 -0.796875 2.84375zm15.219452 4.78125l0 -1.421875q-1.125 1.640625 -3.0625 1.640625q-0.859375 0 -1.609375 -0.328125q-0.734375 -0.328125 -1.09375 -0.828125q-0.359375 -0.5 -0.5 -1.21875q-0.109375 -0.46875 -0.109375 -1.53125l0 -5.984375l1.640625 0l0 5.359375q0 1.28125 0.109375 1.734375q0.15625 0.640625 0.65625 1.015625q0.5 0.375 1.234375 0.375q0.734375 0 1.375 -0.375q0.65625 -0.390625 0.921875 -1.03125q0.265625 -0.65625 0.265625 -1.890625l0 -5.1875l1.640625 0l0 9.671875l-1.46875 0zm7.6257324 -1.46875l0.234375 1.453125q-0.6875 0.140625 -1.234375 0.140625q-0.890625 0 -1.390625 -0.28125q-0.484375 -0.28125 -0.6875 -0.734375q-0.203125 -0.46875 -0.203125 -1.9375l0 -5.578125l-1.203125 0l0 -1.265625l1.203125 0l0 -2.390625l1.625 -0.984375l0 3.375l1.65625 0l0 1.265625l-1.65625 0l0 5.671875q0 0.6875 0.078125 0.890625q0.09375 0.203125 0.28125 0.328125q0.203125 0.109375 0.578125 0.109375q0.265625 0 0.71875 -0.0625zm8.230164 -1.640625l1.6875 0.203125q-0.40625 1.484375 -1.484375 2.3125q-1.078125 0.8125 -2.765625 0.8125q-2.125 0 -3.375 -1.296875q-1.234375 -1.3125 -1.234375 -3.671875q0 -2.453125 1.25 -3.796875q1.265625 -1.34375 3.265625 -1.34375q1.9375 0 3.15625 1.328125q1.234375 1.3125 1.234375 3.703125q0 0.15625 0 0.4375l-7.21875 0q0.09375 1.59375 0.90625 2.453125q0.8125 0.84375 2.015625 0.84375q0.90625 0 1.546875 -0.46875q0.640625 -0.484375 1.015625 -1.515625zm-5.390625 -2.65625l5.40625 0q-0.109375 -1.21875 -0.625 -1.828125q-0.78125 -0.953125 -2.03125 -0.953125q-1.125 0 -1.90625 0.765625q-0.765625 0.75 -0.84375 2.015625zm9.125732 5.765625l0 -9.671875l1.46875 0l0 1.46875q0.5625 -1.03125 1.03125 -1.359375q0.484375 -0.328125 1.0625 -0.328125q0.828125 0 1.6875 0.53125l-0.5625 1.515625q-0.609375 -0.359375 -1.203125 -0.359375q-0.546875 0 -0.96875 0.328125q-0.421875 0.328125 -0.609375 0.890625q-0.28125 0.875 -0.28125 1.921875l0 5.0625l-1.625 0zm11.567841 0l0 -13.359375l2.65625 0l3.15625 9.453125q0.4375 1.328125 0.640625 1.984375q0.234375 -0.734375 0.703125 -2.140625l3.203125 -9.296875l2.375 0l0 13.359375l-1.703125 0l0 -11.171875l-3.875 11.171875l-1.59375 0l-3.859375 -11.375l0 11.375l-1.703125 0zm22.009583 -3.109375l1.6875 0.203125q-0.40625 1.484375 -1.484375 2.3125q-1.078125 0.8125 -2.7656555 0.8125q-2.125 0 -3.375 -1.296875q-1.234375 -1.3125 -1.234375 -3.671875q0 -2.453125 1.25 -3.796875q1.265625 -1.34375 3.265625 -1.34375q1.9375305 0 3.1562805 1.328125q1.234314 1.3125 1.234314 3.703125q0 0.15625 0 0.4375l-7.2187195 0q0.09375 1.59375 0.90625 2.453125q0.8125 0.84375 2.015625 0.84375q0.90625 0 1.5469055 -0.46875q0.640625 -0.484375 1.015625 -1.515625zm-5.3906555 -2.65625l5.4062805 0q-0.109375 -1.21875 -0.625 -1.828125q-0.7812805 -0.953125 -2.0312805 -0.953125q-1.125 0 -1.90625 0.765625q-0.765625 0.75 -0.84375 2.015625zm9.141327 5.765625l0 -9.671875l1.46875 0l0 1.359375q0.453125 -0.71875 1.203125 -1.140625q0.765625 -0.4375 1.71875 -0.4375q1.078125 0 1.765625 0.453125q0.6875 0.4375 0.96875 1.234375q1.15625 -1.6875 2.984375 -1.6875q1.453125 0 2.21875 0.796875q0.78125 0.796875 0.78125 2.453125l0 6.640625l-1.640625 0l0 -6.09375q0 -0.984375 -0.15625 -1.40625q-0.15625 -0.4375 -0.578125 -0.703125q-0.421875 -0.265625 -0.984375 -0.265625q-1.015625 0 -1.6875 0.6875q-0.671875 0.671875 -0.671875 2.15625l0 5.625l-1.640625 0l0 -6.28125q0 -1.09375 -0.40625 -1.640625q-0.40625 -0.546875 -1.3125 -0.546875q-0.6875 0 -1.28125 0.359375q-0.59375 0.359375 -0.859375 1.0625q-0.25 0.703125 -0.25 2.03125l0 5.015625l-1.640625 0zm14.9314575 -4.84375q0 -2.6875 1.484375 -3.96875q1.25 -1.078125 3.046875 -1.078125q2.0 0 3.265625 1.3125q1.265625 1.296875 1.265625 3.609375q0 1.859375 -0.5625 2.9375q-0.5625 1.0625 -1.640625 1.65625q-1.0625 0.59375 -2.328125 0.59375q-2.03125 0 -3.28125 -1.296875q-1.25 -1.3125 -1.25 -3.765625zm1.6875 0q0 1.859375 0.796875 2.796875q0.8125 0.921875 2.046875 0.921875q1.21875 0 2.03125 -0.921875q0.8125 -0.9375 0.8125 -2.84375q0 -1.796875 -0.8125 -2.71875q-0.8125 -0.921875 -2.03125 -0.921875q-1.234375 0 -2.046875 0.921875q-0.796875 0.90625 -0.796875 2.765625zm9.281921 4.84375l0 -9.671875l1.46875 0l0 1.46875q0.5625 -1.03125 1.03125 -1.359375q0.484375 -0.328125 1.0625 -0.328125q0.828125 0 1.6875 0.53125l-0.5625 1.515625q-0.609375 -0.359375 -1.203125 -0.359375q-0.546875 0 -0.96875 0.328125q-0.421875 0.328125 -0.609375 0.890625q-0.28125 0.875 -0.28125 1.921875l0 5.0625l-1.625 0zm6.1502075 3.71875l-0.1875 -1.53125q0.546875 0.140625 0.9375 0.140625q0.546875 0 0.875 -0.1875q0.328125 -0.171875 0.546875 -0.5q0.15625 -0.25 0.5 -1.21875q0.046875 -0.140625 0.140625 -0.40625l-3.671875 -9.6875l1.765625 0l2.015625 5.59375q0.390625 1.078125 0.703125 2.25q0.28125 -1.125 0.671875 -2.203125l2.078125 -5.640625l1.640625 0l-3.6875 9.828125q-0.59375 1.609375 -0.921875 2.203125q-0.4375 0.8125 -1.0 1.1875q-0.5625 0.375 -1.34375 0.375q-0.484375 0 -1.0625 -0.203125z" fill-rule="nonzero"/><path fill="#000000" fill-opacity="0.0" d="m23.380577 256.69815l37.795277 0l0 18.897644l-37.795277 0z" fill-rule="evenodd"/><path fill="#000000" d="m23.818077 269.27017q0 -1.34375 0.28125 -2.171875q0.28125 -0.828125 0.828125 -1.265625q0.546875 -0.453125 1.375 -0.453125q0.625 0 1.078125 0.25q0.46875 0.234375 0.765625 0.703125q0.3125 0.46875 0.484375 1.140625q0.171875 0.671875 0.171875 1.796875q0 1.34375 -0.28125 2.171875q-0.28125 0.828125 -0.828125 1.28125q-0.546875 0.4375 -1.390625 0.4375q-1.09375 0 -1.71875 -0.78125q-0.765625 -0.953125 -0.765625 -3.109375zm0.96875 0q0 1.875 0.4375 2.5q0.4375 0.625 1.078125 0.625q0.65625 0 1.09375 -0.625q0.4375 -0.625 0.4375 -2.5q0 -1.875 -0.4375 -2.5q-0.4375 -0.625 -1.09375 -0.625q-0.640625 0 -1.03125 0.546875q-0.484375 0.703125 -0.484375 2.578125z" fill-rule="nonzero"/><path fill="#000000" fill-opacity="0.0" d="m69.456696 256.69815l37.795273 0l0 18.897644l-37.795273 0z" fill-rule="evenodd"/><path fill="#000000" d="m73.425446 273.0358l-0.9375 0l0 -5.96875q-0.34375 0.328125 -0.890625 0.65625q-0.546875 0.3125 -0.984375 0.46875l0 -0.90625q0.796875 -0.359375 1.375 -0.890625q0.59375 -0.53125 0.828125 -1.015625l0.609375 0l0 7.65625z" fill-rule="nonzero"/><path fill="#000000" fill-opacity="0.0" d="m115.53281 256.69815l37.795273 0l0 18.897644l-37.795273 0z" fill-rule="evenodd"/><path fill="#000000" d="m120.89218 272.12955l0 0.90625l-5.03125 0q-0.015625 -0.34375 0.109375 -0.65625q0.1875 -0.515625 0.609375 -1.015625q0.421875 -0.5 1.234375 -1.140625q1.234375 -1.03125 1.671875 -1.625q0.4375 -0.59375 0.4375 -1.125q0 -0.5625 -0.40625 -0.9375q-0.390625 -0.390625 -1.03125 -0.390625q-0.671875 0 -1.078125 0.40625q-0.40625 0.40625 -0.40625 1.125l-0.96875 -0.09375q0.09375 -1.078125 0.734375 -1.640625q0.65625 -0.5625 1.734375 -0.5625q1.109375 0 1.75 0.609375q0.640625 0.609375 0.640625 1.5q0 0.46875 -0.1875 0.90625q-0.1875 0.4375 -0.625 0.9375q-0.4375 0.484375 -1.453125 1.328125q-0.828125 0.71875 -1.078125 0.96875q-0.234375 0.25 -0.390625 0.5l3.734375 0z" fill-rule="nonzero"/><path fill="#000000" fill-opacity="0.0" d="m161.60892 256.69815l37.795288 0l0 18.897644l-37.795288 0z" fill-rule="evenodd"/><path fill="#000000" d="m162.06204 271.02017l0.9375 -0.125q0.15625 0.796875 0.546875 1.15625q0.390625 0.34375 0.9375 0.34375q0.65625 0 1.109375 -0.453125q0.46875 -0.46875 0.46875 -1.140625q0 -0.640625 -0.421875 -1.0625q-0.421875 -0.421875 -1.078125 -0.421875q-0.265625 0 -0.65625 0.109375l0.109375 -0.828125q0.09375 0.015625 0.140625 0.015625q0.59375 0 1.078125 -0.3125q0.484375 -0.3125 0.484375 -0.96875q0 -0.515625 -0.359375 -0.84375q-0.34375 -0.34375 -0.890625 -0.34375q-0.546875 0 -0.921875 0.34375q-0.359375 0.34375 -0.453125 1.03125l-0.9375 -0.171875q0.171875 -0.9375 0.78125 -1.453125q0.609375 -0.515625 1.5 -0.515625q0.625 0 1.15625 0.265625q0.53125 0.265625 0.796875 0.734375q0.28125 0.453125 0.28125 0.984375q0 0.484375 -0.265625 0.890625q-0.265625 0.40625 -0.78125 0.65625q0.671875 0.15625 1.046875 0.65625q0.375 0.484375 0.375 1.21875q0 1.0 -0.734375 1.703125q-0.71875 0.6875 -1.828125 0.6875q-1.0 0 -1.671875 -0.59375q-0.65625 -0.609375 -0.75 -1.5625z" fill-rule="nonzero"/><path fill="#000000" fill-opacity="0.0" d="m207.68504 256.69815l37.795273 0l0 18.897644l-37.795273 0z" fill-rule="evenodd"/><path fill="#000000" d="m211.12254 273.0358l0 -1.828125l-3.296875 0l0 -0.859375l3.46875 -4.9375l0.765625 0l0 4.9375l1.03125 0l0 0.859375l-1.03125 0l0 1.828125l-0.9375 0zm0 -2.6875l0 -3.4375l-2.375 3.4375l2.375 0z" fill-rule="nonzero"/><path fill="#000000" fill-opacity="0.0" d="m253.76115 256.69815l37.795273 0l0 18.897644l-37.795273 0z" fill-rule="evenodd"/><path fill="#000000" d="m254.19865 271.0358l0.984375 -0.078125q0.109375 0.71875 0.5 1.078125q0.40626526 0.359375 0.96876526 0.359375q0.671875 0 1.140625 -0.5q0.46875 -0.515625 0.46875 -1.359375q0 -0.796875 -0.453125 -1.265625q-0.4375 -0.46875 -1.171875 -0.46875q-0.453125 0 -0.81251526 0.21875q-0.359375 0.203125 -0.578125 0.53125l-0.875 -0.125l0.734375 -3.921875l3.7968903 0l0 0.90625l-3.0468903 0l-0.40625 2.046875q0.68751526 -0.484375 1.4375153 -0.484375q1.0 0 1.6875 0.703125q0.6875 0.6875 0.6875 1.765625q0 1.046875 -0.609375 1.796875q-0.734375 0.921875 -2.0 0.921875q-1.0312653 0 -1.7031403 -0.578125q-0.65625 -0.578125 -0.75 -1.546875z" fill-rule="nonzero"/><path fill="#000000" fill-opacity="0.0" d="m299.83728 256.69815l37.795258 0l0 18.897644l-37.795258 0z" fill-rule="evenodd"/><path fill="#000000" d="m305.13416 267.27017l-0.921875 0.078125q-0.125 -0.546875 -0.359375 -0.796875q-0.375 -0.40625 -0.9375 -0.40625q-0.4375 0 -0.78125 0.25q-0.4375 0.328125 -0.703125 0.953125q-0.25 0.609375 -0.265625 1.75q0.34375 -0.515625 0.828125 -0.765625q0.5 -0.25 1.03125 -0.25q0.9375 0 1.59375 0.703125q0.65625 0.6875 0.65625 1.765625q0 0.71875 -0.3125 1.34375q-0.3125 0.609375 -0.859375 0.9375q-0.53125 0.328125 -1.21875 0.328125q-1.171875 0 -1.90625 -0.859375q-0.734375 -0.859375 -0.734375 -2.828125q0 -2.21875 0.8125 -3.21875q0.71875 -0.875 1.921875 -0.875q0.890625 0 1.46875 0.5q0.578125 0.5 0.6875 1.390625zm-3.8125 3.296875q0 0.484375 0.203125 0.921875q0.203125 0.4375 0.5625 0.671875q0.375 0.234375 0.78125 0.234375q0.59375 0 1.015625 -0.46875q0.4375 -0.484375 0.4375 -1.3125q0 -0.78125 -0.421875 -1.234375q-0.421875 -0.46875 -1.0625 -0.46875q-0.640625 0 -1.078125 0.46875q-0.4375 0.453125 -0.4375 1.1875z" fill-rule="nonzero"/><path fill="#000000" fill-opacity="0.0" d="m345.9134 256.69815l37.795258 0l0 18.897644l-37.795258 0z" fill-rule="evenodd"/><path fill="#000000" d="m346.4134 266.4108l0 -0.90625l4.9375 0l0 0.734375q-0.71875 0.765625 -1.4375 2.0625q-0.71875 1.28125 -1.109375 2.640625q-0.28125 0.953125 -0.359375 2.09375l-0.953125 0q0.015625 -0.90625 0.34375 -2.171875q0.34375 -1.28125 0.96875 -2.453125q0.640625 -1.1875 1.34375 -2.0l-3.734375 0z" fill-rule="nonzero"/><path fill="#000000" fill-opacity="0.0" d="m391.9895 256.69815l37.795288 0l0 18.897644l-37.795288 0z" fill-rule="evenodd"/><path fill="#000000" d="m393.88013 268.89517q-0.59375 -0.203125 -0.875 -0.59375q-0.28125 -0.40625 -0.28125 -0.953125q0 -0.84375 0.59375 -1.40625q0.609375 -0.5625 1.59375 -0.5625q1.0 0 1.609375 0.578125q0.609375 0.578125 0.609375 1.40625q0 0.53125 -0.28125 0.9375q-0.265625 0.390625 -0.84375 0.59375q0.703125 0.234375 1.0625 0.75q0.375 0.5 0.375 1.203125q0 0.984375 -0.6875 1.65625q-0.6875 0.65625 -1.828125 0.65625q-1.125 0 -1.8125 -0.65625q-0.6875 -0.671875 -0.6875 -1.671875q0 -0.75 0.375 -1.25q0.375 -0.5 1.078125 -0.6875zm-0.1875 -1.578125q0 0.53125 0.34375 0.875q0.34375 0.34375 0.90625 0.34375q0.53125 0 0.875 -0.328125q0.359375 -0.34375 0.359375 -0.84375q0 -0.515625 -0.359375 -0.859375q-0.359375 -0.359375 -0.890625 -0.359375q-0.53125 0 -0.890625 0.34375q-0.34375 0.34375 -0.34375 0.828125zm-0.3125 3.515625q0 0.40625 0.1875 0.78125q0.203125 0.375 0.578125 0.578125q0.375 0.203125 0.796875 0.203125q0.671875 0 1.109375 -0.421875q0.4375 -0.4375 0.4375 -1.109375q0 -0.671875 -0.453125 -1.109375q-0.453125 -0.453125 -1.125 -0.453125q-0.65625 0 -1.09375 0.4375q-0.4375 0.4375 -0.4375 1.09375z" fill-rule="nonzero"/><path fill="#000000" fill-opacity="0.0" d="m438.0656 256.69815l37.795288 0l0 18.897644l-37.795288 0z" fill-rule="evenodd"/><path fill="#000000" d="m438.64374 271.27017l0.90625 -0.078125q0.109375 0.625 0.4375 0.921875q0.328125 0.28125 0.828125 0.28125q0.421875 0 0.75 -0.1875q0.328125 -0.203125 0.53125 -0.53125q0.21875 -0.34375 0.359375 -0.890625q0.140625 -0.5625 0.140625 -1.15625q0 -0.0625 -0.015625 -0.1875q-0.28125 0.453125 -0.765625 0.734375q-0.484375 0.265625 -1.046875 0.265625q-0.953125 0 -1.609375 -0.671875q-0.65625 -0.6875 -0.65625 -1.8125q0 -1.171875 0.6875 -1.875q0.6875 -0.703125 1.71875 -0.703125q0.734375 0 1.34375 0.40625q0.625 0.390625 0.9375 1.140625q0.328125 0.734375 0.328125 2.140625q0 1.453125 -0.3125 2.328125q-0.3125 0.859375 -0.953125 1.3125q-0.625 0.453125 -1.46875 0.453125q-0.890625 0 -1.453125 -0.484375q-0.5625 -0.5 -0.6875 -1.40625zm3.84375 -3.359375q0 -0.8125 -0.4375 -1.28125q-0.421875 -0.484375 -1.03125 -0.484375q-0.625 0 -1.09375 0.515625q-0.453125 0.515625 -0.453125 1.328125q0 0.71875 0.4375 1.1875q0.4375 0.453125 1.078125 0.453125q0.65625 0 1.078125 -0.453125q0.421875 -0.46875 0.421875 -1.265625z" fill-rule="nonzero"/><path fill="#000000" fill-opacity="0.0" d="m484.14172 256.69815l37.795288 0l0 18.897644l-37.795288 0z" fill-rule="evenodd"/><path fill="#000000" d="m488.11047 273.0358l-0.9375 0l0 -5.96875q-0.34375 0.328125 -0.890625 0.65625q-0.546875 0.3125 -0.984375 0.46875l0 -0.90625q0.796875 -0.359375 1.375 -0.890625q0.59375 -0.53125 0.828125 -1.015625l0.609375 0l0 7.65625zm2.3952637 -3.765625q0 -1.34375 0.28125 -2.171875q0.28125 -0.828125 0.828125 -1.265625q0.546875 -0.453125 1.375 -0.453125q0.625 0 1.078125 0.25q0.46875 0.234375 0.765625 0.703125q0.3125 0.46875 0.484375 1.140625q0.171875 0.671875 0.171875 1.796875q0 1.34375 -0.28125 2.171875q-0.28125 0.828125 -0.828125 1.28125q-0.546875 0.4375 -1.390625 0.4375q-1.09375 0 -1.71875 -0.78125q-0.765625 -0.953125 -0.765625 -3.109375zm0.96875 0q0 1.875 0.4375 2.5q0.4375 0.625 1.078125 0.625q0.65625 0 1.09375 -0.625q0.4375 -0.625 0.4375 -2.5q0 -1.875 -0.4375 -2.5q-0.4375 -0.625 -1.09375 -0.625q-0.640625 0 -1.03125 0.546875q-0.484375 0.703125 -0.484375 2.578125z" fill-rule="nonzero"/><path fill="#000000" fill-opacity="0.0" d="m530.21783 256.69815l37.795288 0l0 18.897644l-37.795288 0z" fill-rule="evenodd"/><path fill="#000000" d="m534.1866 273.0358l-0.9375 0l0 -5.96875q-0.34375 0.328125 -0.890625 0.65625q-0.546875 0.3125 -0.984375 0.46875l0 -0.90625q0.796875 -0.359375 1.375 -0.890625q0.59375 -0.53125 0.828125 -1.015625l0.609375 0l0 7.65625zm5.1348267 0l-0.9375 0l0 -5.96875q-0.34375 0.328125 -0.890625 0.65625q-0.546875 0.3125 -0.984375 0.46875l0 -0.90625q0.796875 -0.359375 1.375 -0.890625q0.59375 -0.53125 0.828125 -1.015625l0.609375 0l0 7.65625z" fill-rule="nonzero"/><path fill="#000000" fill-opacity="0.0" d="m576.29395 256.69815l37.795288 0l0 18.897644l-37.795288 0z" fill-rule="evenodd"/><path fill="#000000" d="m580.2627 273.0358l-0.9375 0l0 -5.96875q-0.34375 0.328125 -0.890625 0.65625q-0.546875 0.3125 -0.984375 0.46875l0 -0.90625q0.796875 -0.359375 1.375 -0.890625q0.59375 -0.53125 0.828125 -1.015625l0.609375 0l0 7.65625zm7.3171387 -0.90625l0 0.90625l-5.03125 0q-0.015625 -0.34375 0.109375 -0.65625q0.1875 -0.515625 0.609375 -1.015625q0.421875 -0.5 1.234375 -1.140625q1.234375 -1.03125 1.671875 -1.625q0.4375 -0.59375 0.4375 -1.125q0 -0.5625 -0.40625 -0.9375q-0.390625 -0.390625 -1.03125 -0.390625q-0.671875 0 -1.078125 0.40625q-0.40625 0.40625 -0.40625 1.125l-0.96875 -0.09375q0.09375 -1.078125 0.734375 -1.640625q0.65625 -0.5625 1.734375 -0.5625q1.109375 0 1.75 0.609375q0.640625 0.609375 0.640625 1.5q0 0.46875 -0.1875 0.90625q-0.1875 0.4375 -0.625 0.9375q-0.4375 0.484375 -1.453125 1.328125q-0.828125 0.71875 -1.078125 0.96875q-0.234375 0.25 -0.390625 0.5l3.734375 0z" fill-rule="nonzero"/><path fill="#000000" fill-opacity="0.0" d="m622.37006 256.69815l37.795288 0l0 18.897644l-37.795288 0z" fill-rule="evenodd"/><path fill="#000000" d="m626.3388 273.0358l-0.9375 0l0 -5.96875q-0.34375 0.328125 -0.890625 0.65625q-0.546875 0.3125 -0.984375 0.46875l0 -0.90625q0.796875 -0.359375 1.375 -0.890625q0.59375 -0.53125 0.828125 -1.015625l0.609375 0l0 7.65625zm2.4108887 -2.015625l0.9375 -0.125q0.15625 0.796875 0.546875 1.15625q0.390625 0.34375 0.9375 0.34375q0.65625 0 1.109375 -0.453125q0.46875 -0.46875 0.46875 -1.140625q0 -0.640625 -0.421875 -1.0625q-0.421875 -0.421875 -1.078125 -0.421875q-0.265625 0 -0.65625 0.109375l0.109375 -0.828125q0.09375 0.015625 0.140625 0.015625q0.59375 0 1.078125 -0.3125q0.484375 -0.3125 0.484375 -0.96875q0 -0.515625 -0.359375 -0.84375q-0.34375 -0.34375 -0.890625 -0.34375q-0.546875 0 -0.921875 0.34375q-0.359375 0.34375 -0.453125 1.03125l-0.9375 -0.171875q0.171875 -0.9375 0.78125 -1.453125q0.609375 -0.515625 1.5 -0.515625q0.625 0 1.15625 0.265625q0.53125 0.265625 0.796875 0.734375q0.28125 0.453125 0.28125 0.984375q0 0.484375 -0.265625 0.890625q-0.265625 0.40625 -0.78125 0.65625q0.671875 0.15625 1.046875 0.65625q0.375 0.484375 0.375 1.21875q0 1.0 -0.734375 1.703125q-0.71875 0.6875 -1.828125 0.6875q-1.0 0 -1.671875 -0.59375q-0.65625 -0.609375 -0.75 -1.5625z" fill-rule="nonzero"/><path fill="#000000" fill-opacity="0.0" d="m668.44617 256.69815l37.795288 0l0 18.897644l-37.795288 0z" fill-rule="evenodd"/><path fill="#000000" d="m672.4149 273.0358l-0.9375 0l0 -5.96875q-0.34375 0.328125 -0.890625 0.65625q-0.546875 0.3125 -0.984375 0.46875l0 -0.90625q0.796875 -0.359375 1.375 -0.890625q0.59375 -0.53125 0.828125 -1.015625l0.609375 0l0 7.65625zm5.3952637 0l0 -1.828125l-3.296875 0l0 -0.859375l3.46875 -4.9375l0.765625 0l0 4.9375l1.03125 0l0 0.859375l-1.03125 0l0 1.828125l-0.9375 0zm0 -2.6875l0 -3.4375l-2.375 3.4375l2.375 0z" fill-rule="nonzero"/><path fill="#000000" fill-opacity="0.0" d="m714.52234 256.69815l37.795227 0l0 18.897644l-37.795227 0z" fill-rule="evenodd"/><path fill="#000000" d="m718.4911 273.0358l-0.9375 0l0 -5.96875q-0.34375 0.328125 -0.890625 0.65625q-0.546875 0.3125 -0.984375 0.46875l0 -0.90625q0.796875 -0.359375 1.375 -0.890625q0.59375 -0.53125 0.828125 -1.015625l0.609375 0l0 7.65625zm2.3952026 -2.0l0.984375 -0.078125q0.109375 0.71875 0.5 1.078125q0.40625 0.359375 0.96875 0.359375q0.671875 0 1.140625 -0.5q0.46875 -0.515625 0.46875 -1.359375q0 -0.796875 -0.453125 -1.265625q-0.4375 -0.46875 -1.171875 -0.46875q-0.453125 0 -0.8125 0.21875q-0.359375 0.203125 -0.578125 0.53125l-0.875 -0.125l0.734375 -3.921875l3.796875 0l0 0.90625l-3.046875 0l-0.40625 2.046875q0.6875 -0.484375 1.4375 -0.484375q1.0 0 1.6875 0.703125q0.6875 0.6875 0.6875 1.765625q0 1.046875 -0.609375 1.796875q-0.734375 0.921875 -2.0 0.921875q-1.03125 0 -1.703125 -0.578125q-0.65625 -0.578125 -0.75 -1.546875z" fill-rule="nonzero"/><path fill="#000000" fill-opacity="0.0" d="m760.59845 256.69815l37.795227 0l0 18.897644l-37.795227 0z" fill-rule="evenodd"/><path fill="#000000" d="m764.5672 273.0358l-0.9375 0l0 -5.96875q-0.34375 0.328125 -0.890625 0.65625q-0.546875 0.3125 -0.984375 0.46875l0 -0.90625q0.796875 -0.359375 1.375 -0.890625q0.59375 -0.53125 0.828125 -1.015625l0.609375 0l0 7.65625zm7.2545776 -5.765625l-0.921875 0.078125q-0.125 -0.546875 -0.359375 -0.796875q-0.375 -0.40625 -0.9375 -0.40625q-0.4375 0 -0.78125 0.25q-0.4375 0.328125 -0.703125 0.953125q-0.25 0.609375 -0.265625 1.75q0.34375 -0.515625 0.828125 -0.765625q0.5 -0.25 1.03125 -0.25q0.9375 0 1.59375 0.703125q0.65625 0.6875 0.65625 1.765625q0 0.71875 -0.3125 1.34375q-0.3125 0.609375 -0.859375 0.9375q-0.53125 0.328125 -1.21875 0.328125q-1.171875 0 -1.90625 -0.859375q-0.734375 -0.859375 -0.734375 -2.828125q0 -2.21875 0.8125 -3.21875q0.71875 -0.875 1.921875 -0.875q0.890625 0 1.46875 0.5q0.578125 0.5 0.6875 1.390625zm-3.8125 3.296875q0 0.484375 0.203125 0.921875q0.203125 0.4375 0.5625 0.671875q0.375 0.234375 0.78125 0.234375q0.59375 0 1.015625 -0.46875q0.4375 -0.484375 0.4375 -1.3125q0 -0.78125 -0.421875 -1.234375q-0.421875 -0.46875 -1.0625 -0.46875q-0.640625 0 -1.078125 0.46875q-0.4375 0.453125 -0.4375 1.1875z" fill-rule="nonzero"/><path fill="#000000" fill-opacity="0.0" d="m806.67456 256.69815l37.795227 0l0 18.897644l-37.795227 0z" fill-rule="evenodd"/><path fill="#000000" d="m810.6433 273.0358l-0.9375 0l0 -5.96875q-0.34375 0.328125 -0.890625 0.65625q-0.546875 0.3125 -0.984375 0.46875l0 -0.90625q0.796875 -0.359375 1.375 -0.890625q0.59375 -0.53125 0.828125 -1.015625l0.609375 0l0 7.65625zm2.4577026 -6.625l0 -0.90625l4.9375 0l0 0.734375q-0.71875 0.765625 -1.4375 2.0625q-0.71875 1.28125 -1.109375 2.640625q-0.28125 0.953125 -0.359375 2.09375l-0.953125 0q0.015625 -0.90625 0.34375 -2.171875q0.34375 -1.28125 0.96875 -2.453125q0.640625 -1.1875 1.34375 -2.0l-3.734375 0z" fill-rule="nonzero"/><path fill="#000000" fill-opacity="0.0" d="m852.7507 256.69815l37.795288 0l0 18.897644l-37.795288 0z" fill-rule="evenodd"/><path fill="#000000" d="m856.7194 273.0358l-0.9375 0l0 -5.96875q-0.34375 0.328125 -0.890625 0.65625q-0.546875 0.3125 -0.984375 0.46875l0 -0.90625q0.796875 -0.359375 1.375 -0.890625q0.59375 -0.53125 0.828125 -1.015625l0.609375 0l0 7.65625zm3.8483887 -4.140625q-0.59375 -0.203125 -0.875 -0.59375q-0.28125 -0.40625 -0.28125 -0.953125q0 -0.84375 0.59375 -1.40625q0.609375 -0.5625 1.59375 -0.5625q1.0 0 1.609375 0.578125q0.609375 0.578125 0.609375 1.40625q0 0.53125 -0.28125 0.9375q-0.265625 0.390625 -0.84375 0.59375q0.703125 0.234375 1.0625 0.75q0.375 0.5 0.375 1.203125q0 0.984375 -0.6875 1.65625q-0.6875 0.65625 -1.828125 0.65625q-1.125 0 -1.8125 -0.65625q-0.6875 -0.671875 -0.6875 -1.671875q0 -0.75 0.375 -1.25q0.375 -0.5 1.078125 -0.6875zm-0.1875 -1.578125q0 0.53125 0.34375 0.875q0.34375 0.34375 0.90625 0.34375q0.53125 0 0.875 -0.328125q0.359375 -0.34375 0.359375 -0.84375q0 -0.515625 -0.359375 -0.859375q-0.359375 -0.359375 -0.890625 -0.359375q-0.53125 0 -0.890625 0.34375q-0.34375 0.34375 -0.34375 0.828125zm-0.3125 3.515625q0 0.40625 0.1875 0.78125q0.203125 0.375 0.578125 0.578125q0.375 0.203125 0.796875 0.203125q0.671875 0 1.109375 -0.421875q0.4375 -0.4375 0.4375 -1.109375q0 -0.671875 -0.453125 -1.109375q-0.453125 -0.453125 -1.125 -0.453125q-0.65625 0 -1.09375 0.4375q-0.4375 0.4375 -0.4375 1.09375z" fill-rule="nonzero"/><path fill="#000000" fill-opacity="0.0" d="m898.8268 256.69815l37.795288 0l0 18.897644l-37.795288 0z" fill-rule="evenodd"/><path fill="#000000" d="m902.79553 273.0358l-0.9375 0l0 -5.96875q-0.34375 0.328125 -0.890625 0.65625q-0.546875 0.3125 -0.984375 0.46875l0 -0.90625q0.796875 -0.359375 1.375 -0.890625q0.59375 -0.53125 0.828125 -1.015625l0.609375 0l0 7.65625zm2.5358887 -1.765625l0.90625 -0.078125q0.109375 0.625 0.4375 0.921875q0.328125 0.28125 0.828125 0.28125q0.421875 0 0.75 -0.1875q0.328125 -0.203125 0.53125 -0.53125q0.21875 -0.34375 0.359375 -0.890625q0.140625 -0.5625 0.140625 -1.15625q0 -0.0625 -0.015625 -0.1875q-0.28125 0.453125 -0.765625 0.734375q-0.484375 0.265625 -1.046875 0.265625q-0.953125 0 -1.609375 -0.671875q-0.65625 -0.6875 -0.65625 -1.8125q0 -1.171875 0.6875 -1.875q0.6875 -0.703125 1.71875 -0.703125q0.734375 0 1.34375 0.40625q0.625 0.390625 0.9375 1.140625q0.328125 0.734375 0.328125 2.140625q0 1.453125 -0.3125 2.328125q-0.3125 0.859375 -0.953125 1.3125q-0.625 0.453125 -1.46875 0.453125q-0.890625 0 -1.453125 -0.484375q-0.5625 -0.5 -0.6875 -1.40625zm3.84375 -3.359375q0 -0.8125 -0.4375 -1.28125q-0.421875 -0.484375 -1.03125 -0.484375q-0.625 0 -1.09375 0.515625q-0.453125 0.515625 -0.453125 1.328125q0 0.71875 0.4375 1.1875q0.4375 0.453125 1.078125 0.453125q0.65625 0 1.078125 -0.453125q0.421875 -0.46875 0.421875 -1.265625z" fill-rule="nonzero"/><path fill="#ffe599" d="m676.6284 192.76772l-12.860596 -28.434235l0 0c-77.169556 -18.98938 -108.63086 -60.43772 -72.68335 -95.75591c35.94757 -35.318188 127.53943 -52.9477 211.59985 -40.728523c84.060486 12.219175 133.07916 50.288086 113.2453 87.94859c-19.833862 37.660507 -102.0293 62.587494 -189.89172 57.587524z" fill-rule="evenodd"/><path stroke="#595959" stroke-width="1.0" stroke-linejoin="round" stroke-linecap="butt" d="m676.6284 192.76772l-12.860596 -28.434235l0 0c-77.169556 -18.98938 -108.63086 -60.43772 -72.68335 -95.75591c35.94757 -35.318188 127.53943 -52.9477 211.59985 -40.728523c84.060486 12.219175 133.07916 50.288086 113.2453 87.94859c-19.833862 37.660507 -102.0293 62.587494 -189.89172 57.587524z" fill-rule="evenodd"/><path fill="#000000" d="m668.30334 77.42787q0 -3.328125 1.78125 -5.203125q1.78125 -1.890625 4.609375 -1.890625q1.84375 0 3.328125 0.890625q1.484375 0.875 2.265625 2.46875q0.78125 1.578125 0.78125 3.578125q0 2.03125 -0.828125 3.640625q-0.8125 1.59375 -2.3125 2.421875q-1.5 0.828125 -3.25 0.828125q-1.875 0 -3.359375 -0.90625q-1.484375 -0.921875 -2.25 -2.5q-0.765625 -1.578125 -0.765625 -3.328125zm1.8125 0.015625q0 2.421875 1.296875 3.8125q1.296875 1.390625 3.265625 1.390625q2.0 0 3.28125 -1.40625q1.28125 -1.40625 1.28125 -3.984375q0 -1.625 -0.546875 -2.84375q-0.546875 -1.21875 -1.609375 -1.875q-1.0625 -0.671875 -2.375 -0.671875q-1.890625 0 -3.25 1.296875q-1.34375 1.28125 -1.34375 4.28125zm13.027039 6.484375l0 -9.671875l1.46875 0l0 1.375q1.0625 -1.59375 3.078125 -1.59375q0.875 0 1.609375 0.3125q0.734375 0.3125 1.09375 0.828125q0.375 0.5 0.515625 1.203125q0.09375 0.453125 0.09375 1.59375l0 5.953125l-1.640625 0l0 -5.890625q0 -1.0 -0.203125 -1.484375q-0.1875 -0.5 -0.671875 -0.796875q-0.484375 -0.296875 -1.140625 -0.296875q-1.046875 0 -1.8125 0.671875q-0.75 0.65625 -0.75 2.515625l0 5.28125l-1.640625 0zm21.871521 -1.1875q-0.921875 0.765625 -1.765625 1.09375q-0.828125 0.3125 -1.796875 0.3125q-1.59375 0 -2.453125 -0.78125q-0.859375 -0.78125 -0.859375 -1.984375q0 -0.71875 0.328125 -1.296875q0.328125 -0.59375 0.84375 -0.9375q0.53125 -0.359375 1.1875 -0.546875q0.46875 -0.125 1.453125 -0.25q1.984375 -0.234375 2.921875 -0.5625q0.015625 -0.34375 0.015625 -0.421875q0 -1.0 -0.46875 -1.421875q-0.625 -0.546875 -1.875 -0.546875q-1.15625 0 -1.703125 0.40625q-0.546875 0.40625 -0.8125 1.421875l-1.609375 -0.21875q0.21875 -1.015625 0.71875 -1.640625q0.5 -0.640625 1.453125 -0.984375q0.953125 -0.34375 2.1875 -0.34375q1.25 0 2.015625 0.296875q0.78125 0.28125 1.140625 0.734375q0.375 0.4375 0.515625 1.109375q0.078125 0.421875 0.078125 1.515625l0 2.1875q0 2.28125 0.109375 2.890625q0.109375 0.59375 0.40625 1.15625l-1.703125 0q-0.265625 -0.515625 -0.328125 -1.1875zm-0.140625 -3.671875q-0.890625 0.375 -2.671875 0.625q-1.015625 0.140625 -1.4375 0.328125q-0.421875 0.1875 -0.65625 0.53125q-0.21875 0.34375 -0.21875 0.78125q0 0.65625 0.5 1.09375q0.5 0.4375 1.453125 0.4375q0.9375 0 1.671875 -0.40625q0.75 -0.421875 1.09375 -1.140625q0.265625 -0.5625 0.265625 -1.640625l0 -0.609375zm19.121521 0.171875l1.765625 0.453125q-0.5625 2.171875 -2.0 3.328125q-1.4375 1.140625 -3.53125 1.140625q-2.15625 0 -3.515625 -0.875q-1.34375 -0.890625 -2.0625 -2.546875q-0.703125 -1.671875 -0.703125 -3.59375q0 -2.078125 0.796875 -3.625q0.796875 -1.5625 2.265625 -2.359375q1.484375 -0.8125 3.25 -0.8125q2.0 0 3.359375 1.015625q1.375 1.015625 1.90625 2.875l-1.734375 0.40625q-0.46875 -1.453125 -1.359375 -2.109375q-0.875 -0.671875 -2.203125 -0.671875q-1.546875 0 -2.578125 0.734375q-1.03125 0.734375 -1.453125 1.984375q-0.421875 1.234375 -0.421875 2.5625q0 1.703125 0.5 2.96875q0.5 1.265625 1.546875 1.90625q1.046875 0.625 2.265625 0.625q1.484375 0 2.515625 -0.859375q1.03125 -0.859375 1.390625 -2.546875zm3.7385864 4.6875l0 -13.359375l1.640625 0l0 4.796875q1.140625 -1.328125 2.890625 -1.328125q1.078125 0 1.859375 0.421875q0.796875 0.421875 1.140625 1.171875q0.34375 0.75 0.34375 2.171875l0 6.125l-1.640625 0l0 -6.125q0 -1.234375 -0.53125 -1.796875q-0.53125 -0.5625 -1.515625 -0.5625q-0.71875 0 -1.359375 0.390625q-0.640625 0.375 -0.921875 1.015625q-0.265625 0.640625 -0.265625 1.78125l0 5.296875l-1.640625 0zm17.000671 -3.109375l1.6875 0.203125q-0.40625 1.484375 -1.484375 2.3125q-1.078125 0.8125 -2.765625 0.8125q-2.125 0 -3.375 -1.296875q-1.234375 -1.3125 -1.234375 -3.671875q0 -2.453125 1.25 -3.796875q1.265625 -1.34375 3.265625 -1.34375q1.9375 0 3.15625 1.328125q1.234375 1.3125 1.234375 3.703125q0 0.15625 0 0.4375l-7.21875 0q0.09375 1.59375 0.90625 2.453125q0.8125 0.84375 2.015625 0.84375q0.90625 0 1.546875 -0.46875q0.640625 -0.484375 1.015625 -1.515625zm-5.390625 -2.65625l5.40625 0q-0.109375 -1.21875 -0.625 -1.828125q-0.78125 -0.953125 -2.03125 -0.953125q-1.125 0 -1.90625 0.765625q-0.765625 0.75 -0.84375 2.015625zm9.125732 5.765625l0 -9.671875l1.46875 0l0 1.46875q0.5625 -1.03125 1.03125 -1.359375q0.484375 -0.328125 1.0625 -0.328125q0.828125 0 1.6875 0.53125l-0.5625 1.515625q-0.609375 -0.359375 -1.203125 -0.359375q-0.546875 0 -0.96875 0.328125q-0.421875 0.328125 -0.609375 0.890625q-0.28125 0.875 -0.28125 1.921875l0 5.0625l-1.625 0zm6.2283325 -11.46875l0 -1.890625l1.640625 0l0 1.890625l-1.640625 0zm0 11.46875l0 -9.671875l1.640625 0l0 9.671875l-1.640625 0zm15.953125 -3.109375l1.6875 0.203125q-0.40625 1.484375 -1.484375 2.3125q-1.078125 0.8125 -2.765625 0.8125q-2.125 0 -3.375 -1.296875q-1.234375 -1.3125 -1.234375 -3.671875q0 -2.453125 1.25 -3.796875q1.265625 -1.34375 3.265625 -1.34375q1.9375 0 3.15625 1.328125q1.234375 1.3125 1.234375 3.703125q0 0.15625 0 0.4375l-7.21875 0q0.09375 1.59375 0.90625 2.453125q0.8125 0.84375 2.015625 0.84375q0.90625 0 1.546875 -0.46875q0.640625 -0.484375 1.015625 -1.515625zm-5.390625 -2.65625l5.40625 0q-0.109375 -1.21875 -0.625 -1.828125q-0.78125 -0.953125 -2.03125 -0.953125q-1.125 0 -1.90625 0.765625q-0.765625 0.75 -0.84375 2.015625zm9.141296 5.765625l0 -9.671875l1.46875 0l0 1.375q1.0625 -1.59375 3.078125 -1.59375q0.875 0 1.609375 0.3125q0.734375 0.3125 1.09375 0.828125q0.375 0.5 0.515625 1.203125q0.09375 0.453125 0.09375 1.59375l0 5.953125l-1.640625 0l0 -5.890625q0 -1.0 -0.203125 -1.484375q-0.1875 -0.5 -0.671875 -0.796875q-0.484375 -0.296875 -1.140625 -0.296875q-1.046875 0 -1.8125 0.671875q-0.75 0.65625 -0.75 2.515625l0 5.28125l-1.640625 0zm16.688232 -1.1875q-0.921875 0.765625 -1.765625 1.09375q-0.828125 0.3125 -1.796875 0.3125q-1.59375 0 -2.453125 -0.78125q-0.859375 -0.78125 -0.859375 -1.984375q0 -0.71875 0.328125 -1.296875q0.328125 -0.59375 0.84375 -0.9375q0.53125 -0.359375 1.1875 -0.546875q0.46875 -0.125 1.453125 -0.25q1.984375 -0.234375 2.921875 -0.5625q0.015625 -0.34375 0.015625 -0.421875q0 -1.0 -0.46875 -1.421875q-0.625 -0.546875 -1.875 -0.546875q-1.15625 0 -1.703125 0.40625q-0.546875 0.40625 -0.8125 1.421875l-1.609375 -0.21875q0.21875 -1.015625 0.71875 -1.640625q0.5 -0.640625 1.453125 -0.984375q0.953125 -0.34375 2.1875 -0.34375q1.25 0 2.015625 0.296875q0.78125 0.28125 1.140625 0.734375q0.375 0.4375 0.515625 1.109375q0.078125 0.421875 0.078125 1.515625l0 2.1875q0 2.28125 0.109375 2.890625q0.109375 0.59375 0.40625 1.15625l-1.703125 0q-0.265625 -0.515625 -0.328125 -1.1875zm-0.140625 -3.671875q-0.890625 0.375 -2.671875 0.625q-1.015625 0.140625 -1.4375 0.328125q-0.421875 0.1875 -0.65625 0.53125q-0.21875 0.34375 -0.21875 0.78125q0 0.65625 0.5 1.09375q0.5 0.4375 1.453125 0.4375q0.9375 0 1.671875 -0.40625q0.75 -0.421875 1.09375 -1.140625q0.265625 -0.5625 0.265625 -1.640625l0 -0.609375zm5.7038574 4.859375l-1.515625 0l0 -13.359375l1.640625 0l0 4.765625q1.046875 -1.296875 2.65625 -1.296875q0.890625 0 1.6875 0.359375q0.796875 0.359375 1.3125 1.015625q0.515625 0.640625 0.796875 1.5625q0.296875 0.921875 0.296875 1.96875q0 2.484375 -1.234375 3.84375q-1.21875 1.359375 -2.953125 1.359375q-1.703125 0 -2.6875 -1.4375l0 1.21875zm-0.015625 -4.90625q0 1.734375 0.484375 2.515625q0.765625 1.265625 2.09375 1.265625q1.078125 0 1.859375 -0.9375q0.78125 -0.9375 0.78125 -2.78125q0 -1.890625 -0.75 -2.796875q-0.75 -0.90625 -1.828125 -0.90625q-1.0625 0 -1.859375 0.9375q-0.78125 0.9375 -0.78125 2.703125zm8.844482 4.90625l0 -13.359375l1.640625 0l0 13.359375l-1.640625 0zm10.81665 -3.109375l1.6875 0.203125q-0.40625 1.484375 -1.484375 2.3125q-1.078125 0.8125 -2.765625 0.8125q-2.125 0 -3.375 -1.296875q-1.234375 -1.3125 -1.234375 -3.671875q0 -2.453125 1.25 -3.796875q1.265625 -1.34375 3.265625 -1.34375q1.9375 0 3.15625 1.328125q1.234375 1.3125 1.234375 3.703125q0 0.15625 0 0.4375l-7.21875 0q0.09375 1.59375 0.90625 2.453125q0.8125 0.84375 2.015625 0.84375q0.90625 0 1.546875 -0.46875q0.640625 -0.484375 1.015625 -1.515625zm-5.390625 -2.65625l5.40625 0q-0.109375 -1.21875 -0.625 -1.828125q-0.78125 -0.953125 -2.03125 -0.953125q-1.125 0 -1.90625 0.765625q-0.765625 0.75 -0.84375 2.015625zm15.406982 5.765625l0 -1.21875q-0.90625 1.4375 -2.703125 1.4375q-1.15625 0 -2.125 -0.640625q-0.96875 -0.640625 -1.5 -1.78125q-0.53125 -1.140625 -0.53125 -2.625q0 -1.453125 0.484375 -2.625q0.484375 -1.1875 1.4375 -1.8125q0.96875 -0.625 2.171875 -0.625q0.875 0 1.546875 0.375q0.6875 0.359375 1.109375 0.953125l0 -4.796875l1.640625 0l0 13.359375l-1.53125 0zm-5.171875 -4.828125q0 1.859375 0.78125 2.78125q0.78125 0.921875 1.84375 0.921875q1.078125 0 1.828125 -0.875q0.75 -0.890625 0.75 -2.6875q0 -1.984375 -0.765625 -2.90625q-0.765625 -0.9375 -1.890625 -0.9375q-1.078125 0 -1.8125 0.890625q-0.734375 0.890625 -0.734375 2.8125z" fill-rule="nonzero"/><path fill="#000000" d="m654.0058 103.03725l1.625 -0.25q0.125 0.96875 0.75 1.5q0.625 0.515625 1.75 0.515625q1.125 0 1.671875 -0.453125q0.546875 -0.46875 0.546875 -1.09375q0 -0.546875 -0.484375 -0.875q-0.328125 -0.21875 -1.671875 -0.546875q-1.8125 -0.46875 -2.515625 -0.796875q-0.6875 -0.328125 -1.046875 -0.90625q-0.359375 -0.59375 -0.359375 -1.3125q0 -0.640625 0.296875 -1.1875q0.296875 -0.5625 0.8125 -0.921875q0.375 -0.28125 1.03125 -0.46875q0.671875 -0.203125 1.421875 -0.203125q1.140625 0 2.0 0.328125q0.859375 0.328125 1.265625 0.890625q0.421875 0.5625 0.578125 1.5l-1.609375 0.21875q-0.109375 -0.75 -0.640625 -1.171875q-0.515625 -0.421875 -1.46875 -0.421875q-1.140625 0 -1.625 0.375q-0.46875 0.375 -0.46875 0.875q0 0.3125 0.1875 0.578125q0.203125 0.265625 0.640625 0.4375q0.234375 0.09375 1.4375 0.421875q1.75 0.453125 2.4375 0.75q0.6875 0.296875 1.078125 0.859375q0.390625 0.5625 0.390625 1.40625q0 0.828125 -0.484375 1.546875q-0.46875 0.71875 -1.375 1.125q-0.90625 0.390625 -2.046875 0.390625q-1.875 0 -2.875 -0.78125q-0.984375 -0.78125 -1.25 -2.328125zm9.90625 6.609375l-0.1875 -1.53125q0.546875 0.140625 0.9375 0.140625q0.546875 0 0.875 -0.1875q0.328125 -0.171875 0.546875 -0.5q0.15625 -0.25 0.5 -1.21875q0.046875 -0.140625 0.140625 -0.40625l-3.671875 -9.6875l1.765625 0l2.015625 5.59375q0.390625 1.078125 0.703125 2.25q0.28125 -1.125 0.671875 -2.203125l2.078125 -5.640625l1.640625 0l-3.6875 9.828125q-0.59375 1.609375 -0.921875 2.203125q-0.4375 0.8125 -1.0 1.1875q-0.5625 0.375 -1.34375 0.375q-0.484375 0 -1.0625 -0.203125zm8.75 -6.609375l1.625 -0.25q0.125 0.96875 0.75 1.5q0.625 0.515625 1.75 0.515625q1.125 0 1.671875 -0.453125q0.546875 -0.46875 0.546875 -1.09375q0 -0.546875 -0.484375 -0.875q-0.328125 -0.21875 -1.671875 -0.546875q-1.8125 -0.46875 -2.515625 -0.796875q-0.6875 -0.328125 -1.046875 -0.90625q-0.359375 -0.59375 -0.359375 -1.3125q0 -0.640625 0.296875 -1.1875q0.296875 -0.5625 0.8125 -0.921875q0.375 -0.28125 1.03125 -0.46875q0.671875 -0.203125 1.421875 -0.203125q1.140625 0 2.0 0.328125q0.859375 0.328125 1.265625 0.890625q0.421875 0.5625 0.578125 1.5l-1.609375 0.21875q-0.109375 -0.75 -0.640625 -1.171875q-0.515625 -0.421875 -1.46875 -0.421875q-1.140625 0 -1.625 0.375q-0.46875 0.375 -0.46875 0.875q0 0.3125 0.1875 0.578125q0.203125 0.265625 0.640625 0.4375q0.234375 0.09375 1.4375 0.421875q1.75 0.453125 2.4375 0.75q0.6875 0.296875 1.078125 0.859375q0.390625 0.5625 0.390625 1.40625q0 0.828125 -0.484375 1.546875q-0.46875 0.71875 -1.375 1.125q-0.90625 0.390625 -2.046875 0.390625q-1.875 0 -2.875 -0.78125q-0.984375 -0.78125 -1.25 -2.328125zm13.5625 1.421875l0.234375 1.453125q-0.6875 0.140625 -1.234375 0.140625q-0.890625 0 -1.390625 -0.28125q-0.484375 -0.28125 -0.6875 -0.734375q-0.203125 -0.46875 -0.203125 -1.9375l0 -5.578125l-1.203125 0l0 -1.265625l1.203125 0l0 -2.390625l1.625 -0.984375l0 3.375l1.65625 0l0 1.265625l-1.65625 0l0 5.671875q0 0.6875 0.078125 0.890625q0.09375 0.203125 0.28125 0.328125q0.203125 0.109375 0.578125 0.109375q0.265625 0 0.71875 -0.0625zm8.230164 -1.640625l1.6875 0.203125q-0.40625 1.484375 -1.484375 2.3125q-1.078125 0.8125 -2.765625 0.8125q-2.125 0 -3.375 -1.296875q-1.234375 -1.3125 -1.234375 -3.671875q0 -2.453125 1.25 -3.796875q1.265625 -1.34375 3.265625 -1.34375q1.9375 0 3.15625 1.328125q1.234375 1.3125 1.234375 3.703125q0 0.15625 0 0.4375l-7.21875 0q0.09375 1.59375 0.90625 2.453125q0.8125 0.84375 2.015625 0.84375q0.90625 0 1.546875 -0.46875q0.640625 -0.484375 1.015625 -1.515625zm-5.390625 -2.65625l5.40625 0q-0.109375 -1.21875 -0.625 -1.828125q-0.78125 -0.953125 -2.03125 -0.953125q-1.125 0 -1.90625 0.765625q-0.765625 0.75 -0.84375 2.015625zm9.141357 5.765625l0 -9.671875l1.46875 0l0 1.359375q0.453125 -0.71875 1.203125 -1.140625q0.765625 -0.4375 1.71875 -0.4375q1.078125 0 1.765625 0.453125q0.6875 0.4375 0.96875 1.234375q1.15625 -1.6875 2.984375 -1.6875q1.453125 0 2.21875 0.796875q0.78125 0.796875 0.78125 2.453125l0 6.640625l-1.640625 0l0 -6.09375q0 -0.984375 -0.15625 -1.40625q-0.15625 -0.4375 -0.578125 -0.703125q-0.421875 -0.265625 -0.984375 -0.265625q-1.015625 0 -1.6875 0.6875q-0.671875 0.671875 -0.671875 2.15625l0 5.625l-1.640625 0l0 -6.28125q0 -1.09375 -0.40625 -1.640625q-0.40625 -0.546875 -1.3125 -0.546875q-0.6875 0 -1.28125 0.359375q-0.59375 0.359375 -0.859375 1.0625q-0.25 0.703125 -0.25 2.03125l0 5.015625l-1.640625 0zm20.677246 0l0 -13.359375l1.640625 0l0 13.359375l-1.640625 0zm4.1916504 -11.46875l0 -1.890625l1.640625 0l0 1.890625l-1.640625 0zm0 11.46875l0 -9.671875l1.640625 0l0 9.671875l-1.640625 0zm4.1448364 0l0 -13.359375l1.640625 0l0 7.625l3.890625 -3.9375l2.109375 0l-3.6875 3.59375l4.0625 6.078125l-2.015625 0l-3.203125 -4.953125l-1.15625 1.125l0 3.828125l-1.640625 0zm15.953125 -3.109375l1.6875 0.203125q-0.40625 1.484375 -1.484375 2.3125q-1.078125 0.8125 -2.765625 0.8125q-2.125 0 -3.375 -1.296875q-1.234375 -1.3125 -1.234375 -3.671875q0 -2.453125 1.25 -3.796875q1.265625 -1.34375 3.265625 -1.34375q1.9375 0 3.15625 1.328125q1.234375 1.3125 1.234375 3.703125q0 0.15625 0 0.4375l-7.21875 0q0.09375 1.59375 0.90625 2.453125q0.8125 0.84375 2.015625 0.84375q0.90625 0 1.546875 -0.46875q0.640625 -0.484375 1.015625 -1.515625zm-5.390625 -2.65625l5.40625 0q-0.109375 -1.21875 -0.625 -1.828125q-0.78125 -0.953125 -2.03125 -0.953125q-1.125 0 -1.90625 0.765625q-0.765625 0.75 -0.84375 2.015625zm17.902771 4.296875l0.234375 1.453125q-0.6875 0.140625 -1.234375 0.140625q-0.890625 0 -1.390625 -0.28125q-0.484375 -0.28125 -0.6875 -0.734375q-0.203125 -0.46875 -0.203125 -1.9375l0 -5.578125l-1.203125 0l0 -1.265625l1.203125 0l0 -2.390625l1.625 -0.984375l0 3.375l1.65625 0l0 1.265625l-1.65625 0l0 5.671875q0 0.6875 0.078125 0.890625q0.09375 0.203125 0.28125 0.328125q0.203125 0.109375 0.578125 0.109375q0.265625 0 0.71875 -0.0625zm1.6051636 1.46875l0 -13.359375l1.640625 0l0 4.796875q1.140625 -1.328125 2.890625 -1.328125q1.078125 0 1.859375 0.421875q0.796875 0.421875 1.140625 1.171875q0.34375 0.75 0.34375 2.171875l0 6.125l-1.640625 0l0 -6.125q0 -1.234375 -0.53125 -1.796875q-0.53125 -0.5625 -1.515625 -0.5625q-0.71875 0 -1.359375 0.390625q-0.640625 0.375 -0.921875 1.015625q-0.265625 0.640625 -0.265625 1.78125l0 5.296875l-1.640625 0zm17.000732 -3.109375l1.6875 0.203125q-0.40625 1.484375 -1.484375 2.3125q-1.078125 0.8125 -2.765625 0.8125q-2.125 0 -3.375 -1.296875q-1.234375 -1.3125 -1.234375 -3.671875q0 -2.453125 1.25 -3.796875q1.265625 -1.34375 3.265625 -1.34375q1.9375 0 3.15625 1.328125q1.234375 1.3125 1.234375 3.703125q0 0.15625 0 0.4375l-7.21875 0q0.09375 1.59375 0.90625 2.453125q0.8125 0.84375 2.015625 0.84375q0.90625 0 1.546875 -0.46875q0.640625 -0.484375 1.015625 -1.515625zm-5.390625 -2.65625l5.40625 0q-0.109375 -1.21875 -0.625 -1.828125q-0.78125 -0.953125 -2.03125 -0.953125q-1.125 0 -1.90625 0.765625q-0.765625 0.75 -0.84375 2.015625zm14.480896 5.765625l0 -13.359375l2.65625 0l3.15625 9.453125q0.4375 1.328125 0.640625 1.984375q0.234375 -0.734375 0.703125 -2.140625l3.203125 -9.296875l2.375 0l0 13.359375l-1.703125 0l0 -11.171875l-3.875 11.171875l-1.59375 0l-3.859375 -11.375l0 11.375l-1.703125 0zm14.7751465 -4.84375q0 -2.6875 1.484375 -3.96875q1.25 -1.078125 3.046875 -1.078125q2.0 0 3.265625 1.3125q1.265625 1.296875 1.265625 3.609375q0 1.859375 -0.5625 2.9375q-0.5625 1.0625 -1.640625 1.65625q-1.0625 0.59375 -2.328125 0.59375q-2.03125 0 -3.28125 -1.296875q-1.25 -1.3125 -1.25 -3.765625zm1.6875 0q0 1.859375 0.796875 2.796875q0.8125 0.921875 2.046875 0.921875q1.21875 0 2.03125 -0.921875q0.8125 -0.9375 0.8125 -2.84375q0 -1.796875 -0.8125 -2.71875q-0.8125 -0.921875 -2.03125 -0.921875q-1.234375 0 -2.046875 0.921875q-0.796875 0.90625 -0.796875 2.765625zm9.281982 4.84375l0 -9.671875l1.46875 0l0 1.46875q0.5625 -1.03125 1.03125 -1.359375q0.484375 -0.328125 1.0625 -0.328125q0.828125 0 1.6875 0.53125l-0.5625 1.515625q-0.609375 -0.359375 -1.203125 -0.359375q-0.546875 0 -0.96875 0.328125q-0.421875 0.328125 -0.609375 0.890625q-0.28125 0.875 -0.28125 1.921875l0 5.0625l-1.625 0zm12.8533325 -3.109375l1.6875 0.203125q-0.40625 1.484375 -1.484375 2.3125q-1.078125 0.8125 -2.765625 0.8125q-2.125 0 -3.375 -1.296875q-1.234375 -1.3125 -1.234375 -3.671875q0 -2.453125 1.25 -3.796875q1.265625 -1.34375 3.265625 -1.34375q1.9375 0 3.15625 1.328125q1.234375 1.3125 1.234375 3.703125q0 0.15625 0 0.4375l-7.21875 0q0.09375 1.59375 0.90625 2.453125q0.8125 0.84375 2.015625 0.84375q0.90625 0 1.546875 -0.46875q0.640625 -0.484375 1.015625 -1.515625zm-5.390625 -2.65625l5.40625 0q-0.109375 -1.21875 -0.625 -1.828125q-0.78125 -0.953125 -2.03125 -0.953125q-1.125 0 -1.90625 0.765625q-0.765625 0.75 -0.84375 2.015625zm9.094421 5.765625l0 -13.359375l1.640625 0l0 13.359375l-1.640625 0zm4.1448364 0l0 -13.359375l1.640625 0l0 13.359375l-1.640625 0zm3.5823364 -4.84375q0 -2.6875 1.484375 -3.96875q1.25 -1.078125 3.046875 -1.078125q2.0 0 3.265625 1.3125q1.265625 1.296875 1.265625 3.609375q0 1.859375 -0.5625 2.9375q-0.5625 1.0625 -1.640625 1.65625q-1.0625 0.59375 -2.328125 0.59375q-2.03125 0 -3.28125 -1.296875q-1.25 -1.3125 -1.25 -3.765625zm1.6875 0q0 1.859375 0.796875 2.796875q0.8125 0.921875 2.046875 0.921875q1.21875 0 2.03125 -0.921875q0.8125 -0.9375 0.8125 -2.84375q0 -1.796875 -0.8125 -2.71875q-0.8125 -0.921875 -2.03125 -0.921875q-1.234375 0 -2.046875 0.921875q-0.796875 0.90625 -0.796875 2.765625z" fill-rule="nonzero"/><path fill="#000000" d="m672.38275 126.45912l0.234375 1.453125q-0.6875 0.140625 -1.234375 0.140625q-0.890625 0 -1.390625 -0.28125q-0.484375 -0.28125 -0.6875 -0.734375q-0.203125 -0.46875 -0.203125 -1.9375l0 -5.578125l-1.203125 0l0 -1.265625l1.203125 0l0 -2.390625l1.625 -0.984375l0 3.375l1.65625 0l0 1.265625l-1.65625 0l0 5.671875q0 0.6875 0.078125 0.890625q0.09375 0.203125 0.28125 0.328125q0.203125 0.109375 0.578125 0.109375q0.265625 0 0.71875 -0.0625zm1.6051636 1.46875l0 -13.359375l1.640625 0l0 4.796875q1.140625 -1.328125 2.890625 -1.328125q1.078125 0 1.859375 0.421875q0.796875 0.421875 1.140625 1.171875q0.34375 0.75 0.34375 2.171875l0 6.125l-1.640625 0l0 -6.125q0 -1.234375 -0.53125 -1.796875q-0.53125 -0.5625 -1.515625 -0.5625q-0.71875 0 -1.359375 0.390625q-0.640625 0.375 -0.921875 1.015625q-0.265625 0.640625 -0.265625 1.78125l0 5.296875l-1.640625 0zm10.375732 -11.46875l0 -1.890625l1.640625 0l0 1.890625l-1.640625 0zm0 11.46875l0 -9.671875l1.640625 0l0 9.671875l-1.640625 0zm4.1448364 0l0 -9.671875l1.46875 0l0 1.375q1.0625 -1.59375 3.078125 -1.59375q0.875 0 1.609375 0.3125q0.734375 0.3125 1.09375 0.828125q0.375 0.5 0.515625 1.203125q0.09375 0.453125 0.09375 1.59375l0 5.953125l-1.640625 0l0 -5.890625q0 -1.0 -0.203125 -1.484375q-0.1875 -0.5 -0.671875 -0.796875q-0.484375 -0.296875 -1.140625 -0.296875q-1.046875 0 -1.8125 0.671875q-0.75 0.65625 -0.75 2.515625l0 5.28125l-1.640625 0zm10.063171 0.796875l1.59375 0.234375q0.109375 0.75 0.5625 1.078125q0.609375 0.453125 1.671875 0.453125q1.140625 0 1.75 -0.453125q0.625 -0.453125 0.84375 -1.265625q0.125 -0.5 0.109375 -2.109375q-1.0625 1.265625 -2.671875 1.265625q-2.0 0 -3.09375 -1.4375q-1.09375 -1.4375 -1.09375 -3.453125q0 -1.390625 0.5 -2.5625q0.515625 -1.171875 1.453125 -1.796875q0.953125 -0.640625 2.25 -0.640625q1.703125 0 2.8125 1.375l0 -1.15625l1.515625 0l0 8.359375q0 2.265625 -0.46875 3.203125q-0.453125 0.9375 -1.453125 1.484375q-0.984375 0.546875 -2.453125 0.546875q-1.71875 0 -2.796875 -0.78125q-1.0625 -0.765625 -1.03125 -2.34375zm1.359375 -5.8125q0 1.90625 0.75 2.78125q0.765625 0.875 1.90625 0.875q1.125 0 1.890625 -0.859375q0.765625 -0.875 0.765625 -2.734375q0 -1.78125 -0.796875 -2.671875q-0.78125 -0.90625 -1.890625 -0.90625q-1.09375 0 -1.859375 0.890625q-0.765625 0.875 -0.765625 2.625zm8.672607 2.125l1.625 -0.25q0.125 0.96875 0.75 1.5q0.625 0.515625 1.75 0.515625q1.125 0 1.671875 -0.453125q0.546875 -0.46875 0.546875 -1.09375q0 -0.546875 -0.484375 -0.875q-0.328125 -0.21875 -1.671875 -0.546875q-1.8125 -0.46875 -2.515625 -0.796875q-0.6875 -0.328125 -1.046875 -0.90625q-0.359375 -0.59375 -0.359375 -1.3125q0 -0.640625 0.296875 -1.1875q0.296875 -0.5625 0.8125 -0.921875q0.375 -0.28125 1.03125 -0.46875q0.671875 -0.203125 1.421875 -0.203125q1.140625 0 2.0 0.328125q0.859375 0.328125 1.265625 0.890625q0.421875 0.5625 0.578125 1.5l-1.609375 0.21875q-0.109375 -0.75 -0.640625 -1.171875q-0.515625 -0.421875 -1.46875 -0.421875q-1.140625 0 -1.625 0.375q-0.46875 0.375 -0.46875 0.875q0 0.3125 0.1875 0.578125q0.203125 0.265625 0.640625 0.4375q0.234375 0.09375 1.4375 0.421875q1.75 0.453125 2.4375 0.75q0.6875 0.296875 1.078125 0.859375q0.390625 0.5625 0.390625 1.40625q0 0.828125 -0.484375 1.546875q-0.46875 0.71875 -1.375 1.125q-0.90625 0.390625 -2.046875 0.390625q-1.875 0 -2.875 -0.78125q-0.984375 -0.78125 -1.25 -2.328125zm15.120789 2.890625l0 -13.359375l1.640625 0l0 13.359375l-1.640625 0zm3.5823364 -4.84375q0 -2.6875 1.484375 -3.96875q1.25 -1.078125 3.046875 -1.078125q2.0 0 3.265625 1.3125q1.265625 1.296875 1.265625 3.609375q0 1.859375 -0.5625 2.9375q-0.5625 1.0625 -1.640625 1.65625q-1.0625 0.59375 -2.328125 0.59375q-2.03125 0 -3.28125 -1.296875q-1.25 -1.3125 -1.25 -3.765625zm1.6875 0q0 1.859375 0.796875 2.796875q0.8125 0.921875 2.046875 0.921875q1.21875 0 2.03125 -0.921875q0.8125 -0.9375 0.8125 -2.84375q0 -1.796875 -0.8125 -2.71875q-0.8125 -0.921875 -2.03125 -0.921875q-1.234375 0 -2.046875 0.921875q-0.796875 0.90625 -0.796875 2.765625zm8.688232 0q0 -2.6875 1.484375 -3.96875q1.25 -1.078125 3.046875 -1.078125q2.0 0 3.265625 1.3125q1.265625 1.296875 1.265625 3.609375q0 1.859375 -0.5625 2.9375q-0.5625 1.0625 -1.640625 1.65625q-1.0625 0.59375 -2.328125 0.59375q-2.03125 0 -3.28125 -1.296875q-1.25 -1.3125 -1.25 -3.765625zm1.6875 0q0 1.859375 0.796875 2.796875q0.8125 0.921875 2.046875 0.921875q1.21875 0 2.03125 -0.921875q0.8125 -0.9375 0.8125 -2.84375q0 -1.796875 -0.8125 -2.71875q-0.8125 -0.921875 -2.03125 -0.921875q-1.234375 0 -2.046875 0.921875q-0.796875 0.90625 -0.796875 2.765625zm9.297607 4.84375l0 -13.359375l1.640625 0l0 7.625l3.890625 -3.9375l2.109375 0l-3.6875 3.59375l4.0625 6.078125l-2.015625 0l-3.203125 -4.953125l-1.15625 1.125l0 3.828125l-1.640625 0zm20.777039 0l0 -1.21875q-0.90625 1.4375 -2.703125 1.4375q-1.15625 0 -2.125 -0.640625q-0.96875 -0.640625 -1.5 -1.78125q-0.53125 -1.140625 -0.53125 -2.625q0 -1.453125 0.484375 -2.625q0.484375 -1.1875 1.4375 -1.8125q0.96875 -0.625 2.171875 -0.625q0.875 0 1.546875 0.375q0.6875 0.359375 1.109375 0.953125l0 -4.796875l1.640625 0l0 13.359375l-1.53125 0zm-5.171875 -4.828125q0 1.859375 0.78125 2.78125q0.78125 0.921875 1.84375 0.921875q1.078125 0 1.828125 -0.875q0.75 -0.890625 0.75 -2.6875q0 -1.984375 -0.765625 -2.90625q-0.765625 -0.9375 -1.890625 -0.9375q-1.078125 0 -1.8125 0.890625q-0.734375 0.890625 -0.734375 2.8125zm9.281982 -6.640625l0 -1.890625l1.640625 0l0 1.890625l-1.640625 0zm0 11.46875l0 -9.671875l1.640625 0l0 9.671875l-1.640625 0zm4.5354004 0l0 -8.40625l-1.453125 0l0 -1.265625l1.453125 0l0 -1.03125q0 -0.96875 0.171875 -1.453125q0.234375 -0.640625 0.828125 -1.03125q0.59375 -0.390625 1.671875 -0.390625q0.6875 0 1.53125 0.15625l-0.25 1.4375q-0.5 -0.09375 -0.953125 -0.09375q-0.75 0 -1.0625 0.328125q-0.3125 0.3125 -0.3125 1.1875l0 0.890625l1.890625 0l0 1.265625l-1.890625 0l0 8.40625l-1.625 0zm4.8460693 0l0 -8.40625l-1.453125 0l0 -1.265625l1.453125 0l0 -1.03125q0 -0.96875 0.171875 -1.453125q0.234375 -0.640625 0.828125 -1.03125q0.59375 -0.390625 1.671875 -0.390625q0.6875 0 1.53125 0.15625l-0.25 1.4375q-0.5 -0.09375 -0.953125 -0.09375q-0.75 0 -1.0625 0.328125q-0.3125 0.3125 -0.3125 1.1875l0 0.890625l1.890625 0l0 1.265625l-1.890625 0l0 8.40625l-1.625 0zm11.417725 -3.109375l1.6875 0.203125q-0.40625 1.484375 -1.484375 2.3125q-1.078125 0.8125 -2.765625 0.8125q-2.125 0 -3.375 -1.296875q-1.234375 -1.3125 -1.234375 -3.671875q0 -2.453125 1.25 -3.796875q1.265625 -1.34375 3.265625 -1.34375q1.9375 0 3.15625 1.328125q1.234375 1.3125 1.234375 3.703125q0 0.15625 0 0.4375l-7.21875 0q0.09375 1.59375 0.90625 2.453125q0.8125 0.84375 2.015625 0.84375q0.90625 0 1.546875 -0.46875q0.640625 -0.484375 1.015625 -1.515625zm-5.390625 -2.65625l5.40625 0q-0.109375 -1.21875 -0.625 -1.828125q-0.78125 -0.953125 -2.03125 -0.953125q-1.125 0 -1.90625 0.765625q-0.765625 0.75 -0.84375 2.015625zm9.125671 5.765625l0 -9.671875l1.46875 0l0 1.46875q0.5625 -1.03125 1.03125 -1.359375q0.484375 -0.328125 1.0625 -0.328125q0.828125 0 1.6875 0.53125l-0.5625 1.515625q-0.609375 -0.359375 -1.203125 -0.359375q-0.546875 0 -0.96875 0.328125q-0.421875 0.328125 -0.609375 0.890625q-0.28125 0.875 -0.28125 1.921875l0 5.0625l-1.625 0zm12.8533325 -3.109375l1.6875 0.203125q-0.40625 1.484375 -1.484375 2.3125q-1.078125 0.8125 -2.765625 0.8125q-2.125 0 -3.375 -1.296875q-1.234375 -1.3125 -1.234375 -3.671875q0 -2.453125 1.25 -3.796875q1.265625 -1.34375 3.265625 -1.34375q1.9375 0 3.15625 1.328125q1.234375 1.3125 1.234375 3.703125q0 0.15625 0 0.4375l-7.21875 0q0.09375 1.59375 0.90625 2.453125q0.8125 0.84375 2.015625 0.84375q0.90625 0 1.546875 -0.46875q0.640625 -0.484375 1.015625 -1.515625zm-5.390625 -2.65625l5.40625 0q-0.109375 -1.21875 -0.625 -1.828125q-0.78125 -0.953125 -2.03125 -0.953125q-1.125 0 -1.90625 0.765625q-0.765625 0.75 -0.84375 2.015625zm9.141357 5.765625l0 -9.671875l1.46875 0l0 1.375q1.0625 -1.59375 3.078125 -1.59375q0.875 0 1.609375 0.3125q0.734375 0.3125 1.09375 0.828125q0.375 0.5 0.515625 1.203125q0.09375 0.453125 0.09375 1.59375l0 5.953125l-1.640625 0l0 -5.890625q0 -1.0 -0.203125 -1.484375q-0.1875 -0.5 -0.671875 -0.796875q-0.484375 -0.296875 -1.140625 -0.296875q-1.046875 0 -1.8125 0.671875q-0.75 0.65625 -0.75 2.515625l0 5.28125l-1.640625 0zm13.953796 -1.46875l0.234375 1.453125q-0.6875 0.140625 -1.234375 0.140625q-0.890625 0 -1.390625 -0.28125q-0.484375 -0.28125 -0.6875 -0.734375q-0.203125 -0.46875 -0.203125 -1.9375l0 -5.578125l-1.203125 0l0 -1.265625l1.203125 0l0 -2.390625l1.625 -0.984375l0 3.375l1.65625 0l0 1.265625l-1.65625 0l0 5.671875q0 0.6875 0.078125 0.890625q0.09375 0.203125 0.28125 0.328125q0.203125 0.109375 0.578125 0.109375q0.265625 0 0.71875 -0.0625z" fill-rule="nonzero"/></g></svg>